<?xml version="1.0" encoding="UTF-8" standalone="no"?>
<svg
   xmlns:dc="http://purl.org/dc/elements/1.1/"
   xmlns:cc="http://creativecommons.org/ns#"
   xmlns:rdf="http://www.w3.org/1999/02/22-rdf-syntax-ns#"
   xmlns:svg="http://www.w3.org/2000/svg"
   xmlns="http://www.w3.org/2000/svg"
   xmlns:sodipodi="http://sodipodi.sourceforge.net/DTD/sodipodi-0.dtd"
   xmlns:inkscape="http://www.inkscape.org/namespaces/inkscape"
   width="1122.5197"
   height="793.70081"
   version="1.1"
   id="svg65"
   sodipodi:docname="front_side.svg"
   inkscape:version="0.92.2 (5c3e80d, 2017-08-06)">
  <metadata
     id="metadata69">
    <rdf:RDF>
      <cc:Work
         rdf:about="">
        <dc:format>image/svg+xml</dc:format>
        <dc:type
           rdf:resource="http://purl.org/dc/dcmitype/StillImage" />
        <dc:title></dc:title>
      </cc:Work>
    </rdf:RDF>
  </metadata>
  <sodipodi:namedview
     pagecolor="#ffffff"
     bordercolor="#666666"
     borderopacity="1"
     objecttolerance="10"
     gridtolerance="10"
     guidetolerance="10"
     inkscape:pageopacity="0"
     inkscape:pageshadow="2"
     inkscape:window-width="1920"
     inkscape:window-height="1017"
     id="namedview67"
     showgrid="false"
     inkscape:zoom="0.21024131"
     inkscape:cx="396.8504"
     inkscape:cy="561.25983"
     inkscape:window-x="-8"
     inkscape:window-y="-8"
     inkscape:window-maximized="1"
     inkscape:current-layer="g63" />
  <desc
     id="desc2">C:\Users\user\Desktop\alim_table_pte\DXF\front_side.DXF - scale = 1.000000, origin = (0.000000, 0.000000), method = file</desc>
  <defs
     id="defs17">
    <marker
       id="DistanceX"
       orient="auto"
       refX="0"
       refY="0"
       style="overflow:visible">
      <path
         d="M 3,-3 -3,3 M 0,-5 V 5"
         style="stroke:#000000;stroke-width:0.5"
         id="path4"
         inkscape:connector-curvature="0" />
    </marker>
    <pattern
       height="8"
       id="Hatch"
       patternUnits="userSpaceOnUse"
       width="8"
       x="0"
       y="0">
      <path
         d="M8 4 l-4,4"
         linecap="square"
         stroke="#000000"
         stroke-width="0.25"
         id="path7" />
      <path
         d="M6 2 l-4,4"
         linecap="square"
         stroke="#000000"
         stroke-width="0.25"
         id="path9" />
      <path
         d="M4 0 l-4,4"
         linecap="square"
         stroke="#000000"
         stroke-width="0.25"
         id="path11" />
    </pattern>
    <symbol
       id="*Model_Space" />
    <symbol
       id="*Paper_Space" />
    <symbol
       id="*Paper_Space0" />
  </defs>
  <g
     inkscape:groupmode="layer"
     inkscape:label="0"
     id="g63"
     transform="translate(0,-328.81885)">
    <g
       id="g93"
       transform="translate(23.133574,-23.133653)">
      <path
         inkscape:connector-curvature="0"
         id="path19"
         style="fill:none;stroke:#000000;stroke-width:0.89999998;stroke-linecap:round"
         d="m 320.31496,1033.3088 a 23.622047,23.622047 0 1 0 -47.24409,0 23.622048,23.622048 0 1 0 47.24409,0 z" />
      <path
         inkscape:connector-curvature="0"
         id="path21"
         style="fill:none;stroke:#000000;stroke-width:0.89999998;stroke-linecap:round"
         d="m 176.69291,1033.3088 a 23.622047,23.622047 0 1 0 -47.24409,0 23.622047,23.622047 0 1 0 47.24409,0 z" />
      <path
         inkscape:connector-curvature="0"
         id="path23"
         style="fill:none;stroke:#000000;stroke-width:0.89999998;stroke-linecap:round"
         d="m 478.11024,809.53255 a 5.669295,5.669295 0 1 0 -11.33859,0 5.669295,5.669295 0 1 0 11.33859,0 z" />
      <path
         inkscape:connector-curvature="0"
         id="path25"
         style="fill:none;stroke:#000000;stroke-width:0.89999998;stroke-linecap:round"
         d="m 483.77953,921.42065 a 11.338585,11.338585 0 1 0 -22.67717,0 11.338585,11.338585 0 1 0 22.67717,0 z" />
      <path
         inkscape:connector-curvature="0"
         id="path27"
         style="fill:none;stroke:#000000;stroke-width:0.89999998;stroke-linecap:round"
         d="m 557.95276,753.5885 a 23.62205,23.62205 0 1 0 -47.2441,0 23.62205,23.62205 0 1 0 47.2441,0 z" />
      <path
         inkscape:connector-curvature="0"
         id="path29"
         style="fill:none;stroke:#000000;stroke-width:0.89999998;stroke-linecap:round"
         d="m 929.29134,1033.3088 a 23.62205,23.62205 0 1 0 -47.2441,0 23.62205,23.62205 0 1 0 47.2441,0 z" />
      <path
         inkscape:connector-curvature="0"
         id="path31"
         style="fill:none;stroke:#000000;stroke-width:0.89999998;stroke-linecap:round"
         d="m 681.73228,865.4766 a 23.622047,23.622047 0 1 0 -47.24409,0 23.622047,23.622047 0 1 0 47.24409,0 z" />
      <path
         inkscape:connector-curvature="0"
         id="path33"
         style="fill:none;stroke:#000000;stroke-width:0.89999998;stroke-linecap:round"
         d="m 929.29134,753.5885 a 23.62205,23.62205 0 1 0 -47.2441,0 23.62205,23.62205 0 1 0 47.2441,0 z" />
      <path
         inkscape:connector-curvature="0"
         id="path35"
         style="fill:none;stroke:#000000;stroke-width:0.89999998;stroke-linecap:round"
         d="m 805.51181,753.5885 a 23.622047,23.622047 0 1 0 -47.24409,0 23.622047,23.622047 0 1 0 47.24409,0 z" />
      <path
         inkscape:connector-curvature="0"
         id="path37"
         style="fill:none;stroke:#000000;stroke-width:0.89999998;stroke-linecap:round"
         d="m 681.73228,753.5885 a 23.622047,23.622047 0 1 0 -47.24409,0 23.622047,23.622047 0 1 0 47.24409,0 z" />
      <path
         inkscape:connector-curvature="0"
         id="path39"
         style="fill:none;stroke:#000000;stroke-width:0.89999998;stroke-linecap:round"
         d="m 805.51181,1033.3088 a 23.622047,23.622047 0 1 0 -47.24409,0 23.622047,23.622047 0 1 0 47.24409,0 z" />
      <path
         inkscape:connector-curvature="0"
         id="path41"
         style="fill:none;stroke:#000000;stroke-width:0.89999998;stroke-linecap:round"
         d="m 681.73228,1033.3088 a 23.622047,23.622047 0 1 0 -47.24409,0 23.622047,23.622047 0 1 0 47.24409,0 z" />
      <path
         inkscape:connector-curvature="0"
         id="path43"
         style="fill:none;stroke:#000000;stroke-width:0.89999998;stroke-linecap:round"
         d="m 557.95276,1033.3088 a 23.62205,23.62205 0 1 0 -47.2441,0 23.62205,23.62205 0 1 0 47.2441,0 z" />
      <path
         inkscape:connector-curvature="0"
         id="path45"
         style="fill:none;stroke:#000000;stroke-width:0.89999998;stroke-linecap:round"
         d="m 805.51181,865.4766 a 23.622047,23.622047 0 1 0 -47.24409,0 23.622047,23.622047 0 1 0 47.24409,0 z" />
      <path
         inkscape:connector-curvature="0"
         id="path47"
         style="fill:none;stroke:#000000;stroke-width:0.89999998;stroke-linecap:round"
         d="M 967.55905,697.64445 H -22.677165" />
      <path
         inkscape:connector-curvature="0"
         id="path49"
         style="fill:none;stroke:#000000;stroke-width:0.89999998;stroke-linecap:round"
         d="M 967.55905,1145.1969 V 697.64445" />
      <path
         inkscape:connector-curvature="0"
         id="path51"
         style="fill:none;stroke:#000000;stroke-width:0.89999998;stroke-linecap:round"
         d="M 368.50394,885.1231 V 733.942" />
      <path
         inkscape:connector-curvature="0"
         id="path53"
         style="fill:none;stroke:#000000;stroke-width:0.89999998;stroke-linecap:round"
         d="M 368.50394,733.942 H 81.259843" />
      <path
         inkscape:connector-curvature="0"
         id="path55"
         style="fill:none;stroke:#000000;stroke-width:0.89999998;stroke-linecap:round"
         d="M 81.259843,733.942 V 885.1231" />
      <path
         inkscape:connector-curvature="0"
         id="path57"
         style="fill:none;stroke:#000000;stroke-width:0.89999998;stroke-linecap:round"
         d="M 81.259843,885.1231 H 368.50394" />
      <path
         inkscape:connector-curvature="0"
         id="path59"
         style="fill:none;stroke:#000000;stroke-width:0.89999998;stroke-linecap:round"
         d="M -22.677165,1145.1969 H 967.55905" />
      <path
         inkscape:connector-curvature="0"
         id="path61"
         style="fill:none;stroke:#000000;stroke-width:0.89999998;stroke-linecap:round"
         d="M -22.677165,697.64445 V 1145.1969" />
    </g>
  </g>
</svg>
