  0
SECTION
  2
HEADER
  9
$ACADVER
  1
AC1014
  9
$HANDSEED
  5
FFFF
  9
$MEASUREMENT
 70
     1
  0
ENDSEC
  0
SECTION
  2
TABLES
  0
TABLE
  2
VPORT
  5
8
330
0
100
AcDbSymbolTable
 70
     4
  0
VPORT
  5
2E
330
8
100
AcDbSymbolTableRecord
100
AcDbViewportTableRecord
  2
*ACTIVE
 70
     0
 10
0.0
 20
0.0
 11
1.0
 21
1.0
 12
210.0
 22
148.5
 13
0.0
 23
0.0
 14
10.0
 24
10.0
 15
10.0
 25
10.0
 16
0.0
 26
0.0
 36
1.0
 17
0.0
 27
0.0
 37
0.0
 40
341.0
 41
1.24
 42
50.0
 43
0.0
 44
0.0
 50
0.0
 51
0.0
 71
     0
 72
   100
 73
     1
 74
     3
 75
     0
 76
     0
 77
     0
 78
     0
  0
ENDTAB
  0
TABLE
  2
LTYPE
  5
5
330
0
100
AcDbSymbolTable
 70
     1
  0
LTYPE
  5
14
330
5
100
AcDbSymbolTableRecord
100
AcDbLinetypeTableRecord
  2
BYBLOCK
 70
     0
  3

 72
    65
 73
     0
 40
0.0
  0
LTYPE
  5
15
330
5
100
AcDbSymbolTableRecord
100
AcDbLinetypeTableRecord
  2
BYLAYER
 70
     0
  3

 72
    65
 73
     0
 40
0.0
  0
LTYPE
  5
16
330
5
100
AcDbSymbolTableRecord
100
AcDbLinetypeTableRecord
  2
CONTINUOUS
 70
     0
  3
Solid line
 72
    65
 73
     0
 40
0.0
  0
ENDTAB
  0
TABLE
  2
LAYER
  5
2
100
AcDbSymbolTable
 70
1
  0
LAYER
  5
50
100
AcDbSymbolTableRecord
100
AcDbLayerTableRecord
  2
0
 70
0
  6
CONTINUOUS
  0
ENDTAB
  0
TABLE
  2
STYLE
  5
3
330
0
100
AcDbSymbolTable
 70
     1
  0
STYLE
  5
11
330
3
100
AcDbSymbolTableRecord
100
AcDbTextStyleTableRecord
  2
STANDARD
 70
     0
 40
0.0
 41
1.0
 50
0.0
 71
     0
 42
2.5
  3
txt
  4

  0
ENDTAB
  0
TABLE
  2
VIEW
  5
6
330
0
100
AcDbSymbolTable
 70
     0
  0
ENDTAB
  0
TABLE
  2
UCS
  5
7
330
0
100
AcDbSymbolTable
 70
     0
  0
ENDTAB
  0
TABLE
  2
APPID
  5
9
330
0
100
AcDbSymbolTable
 70
     2
  0
APPID
  5
12
330
9
100
AcDbSymbolTableRecord
100
AcDbRegAppTableRecord
  2
ACAD
 70
     0
  0
ENDTAB
  0
TABLE
  2
DIMSTYLE
  5
A
330
0
100
AcDbSymbolTable
 70
     1
  0
DIMSTYLE
105
27
330
A
100
AcDbSymbolTableRecord
100
AcDbDimStyleTableRecord
  2
ISO-25
 70
     0
  3

  4

  5

  6

  7

 40
1.0
 41
2.5
 42
0.625
 43
3.75
 44
1.25
 45
0.0
 46
0.0
 47
0.0
 48
0.0
140
2.5
141
2.5
142
0.0
143
0.03937007874016
144
1.0
145
0.0
146
1.0
147
0.625
 71
     0
 72
     0
 73
     0
 74
     0
 75
     0
 76
     0
 77
     1
 78
     8
170
     0
171
     3
172
     1
173
     0
174
     0
175
     0
176
     0
177
     0
178
     0
270
     2
271
     2
272
     2
273
     2
274
     3
340
11
275
     0
280
     0
281
     0
282
     0
283
     0
284
     8
285
     0
286
     0
287
     3
288
     0
  0
ENDTAB
  0
TABLE
  2
BLOCK_RECORD
  5
1
330
0
100
AcDbSymbolTable
 70
     1
  0
BLOCK_RECORD
  5
1F
330
1
100
AcDbSymbolTableRecord
100
AcDbBlockTableRecord
  2
*MODEL_SPACE
  0
BLOCK_RECORD
  5
1B
330
1
100
AcDbSymbolTableRecord
100
AcDbBlockTableRecord
  2
*PAPER_SPACE
  0
ENDTAB
  0
ENDSEC
  0
SECTION
  2
BLOCKS
  0
BLOCK
  5
20
330
1F
100
AcDbEntity
  8
0
100
AcDbBlockBegin
  2
*MODEL_SPACE
 70
     0
 10
0.0
 20
0.0
 30
0.0
  3
*MODEL_SPACE
  1

  0
ENDBLK
  5
21
330
1F
100
AcDbEntity
  8
0
100
AcDbBlockEnd
  0
BLOCK
  5
1C
330
1B
100
AcDbEntity
 67
     1
  8
0
100
AcDbBlockBegin
  2
*PAPER_SPACE
  1

  0
ENDBLK
  5
1D
330
1B
100
AcDbEntity
 67
     1
  8
0
100
AcDbBlockEnd
  0
ENDSEC
  0
SECTION
  2
ENTITIES
  0
SPLINE
  5
100
100
AcDbEntity
  8
0
 62
7
100
AcDbSpline
 70
8
 71
3
 72
8
 73
4
 74
0
 40
0
 40
0
 40
0
 40
0
 40
1
 40
1
 40
1
 40
1
 10
745.023337
 20
285.810796
 30
0.0
 10
745.024435
 20
289.187266
 30
0.0
 10
743.223741
 20
292.307723
 30
0.0
 10
740.299815
 20
293.996275
 30
0.0
  0
SPLINE
  5
101
100
AcDbEntity
  8
0
 62
7
100
AcDbSpline
 70
8
 71
3
 72
8
 73
4
 74
0
 40
0
 40
0
 40
0
 40
0
 40
1
 40
1
 40
1
 40
1
 10
740.299815
 20
293.996275
 30
0.0
 10
737.375890
 20
295.684827
 30
0.0
 10
733.773147
 20
295.684827
 30
0.0
 10
730.849222
 20
293.996275
 30
0.0
  0
SPLINE
  5
102
100
AcDbEntity
  8
0
 62
7
100
AcDbSpline
 70
8
 71
3
 72
8
 73
4
 74
0
 40
0
 40
0
 40
0
 40
0
 40
1
 40
1
 40
1
 40
1
 10
730.849222
 20
293.996275
 30
0.0
 10
727.925296
 20
292.307723
 30
0.0
 10
726.124602
 20
289.187266
 30
0.0
 10
726.125700
 20
285.810796
 30
0.0
  0
SPLINE
  5
103
100
AcDbEntity
  8
0
 62
7
100
AcDbSpline
 70
8
 71
3
 72
8
 73
4
 74
0
 40
0
 40
0
 40
0
 40
0
 40
1
 40
1
 40
1
 40
1
 10
726.125700
 20
285.810796
 30
0.0
 10
726.124602
 20
282.434326
 30
0.0
 10
727.925296
 20
279.313869
 30
0.0
 10
730.849222
 20
277.625317
 30
0.0
  0
SPLINE
  5
104
100
AcDbEntity
  8
0
 62
7
100
AcDbSpline
 70
8
 71
3
 72
8
 73
4
 74
0
 40
0
 40
0
 40
0
 40
0
 40
1
 40
1
 40
1
 40
1
 10
730.849222
 20
277.625317
 30
0.0
 10
733.773147
 20
275.936765
 30
0.0
 10
737.375890
 20
275.936765
 30
0.0
 10
740.299815
 20
277.625317
 30
0.0
  0
SPLINE
  5
105
100
AcDbEntity
  8
0
 62
7
100
AcDbSpline
 70
8
 71
3
 72
8
 73
4
 74
0
 40
0
 40
0
 40
0
 40
0
 40
1
 40
1
 40
1
 40
1
 10
740.299815
 20
277.625317
 30
0.0
 10
743.223741
 20
279.313869
 30
0.0
 10
745.024435
 20
282.434326
 30
0.0
 10
745.023337
 20
285.810796
 30
0.0
  0
LINE
  5
106
100
AcDbEntity
  8
0
 62
7
100
AcDbLine
 10
745.023337
 20
285.810796
 30
0.0
 11
745.023337
 21
285.810796
 31
0.0
  0
SPLINE
  5
107
100
AcDbEntity
  8
0
 62
7
100
AcDbSpline
 70
8
 71
3
 72
8
 73
4
 74
0
 40
0
 40
0
 40
0
 40
0
 40
1
 40
1
 40
1
 40
1
 10
745.023337
 20
38.251716
 30
0.0
 10
745.024435
 20
41.628186
 30
0.0
 10
743.223741
 20
44.748643
 30
0.0
 10
740.299815
 20
46.437195
 30
0.0
  0
SPLINE
  5
108
100
AcDbEntity
  8
0
 62
7
100
AcDbSpline
 70
8
 71
3
 72
8
 73
4
 74
0
 40
0
 40
0
 40
0
 40
0
 40
1
 40
1
 40
1
 40
1
 10
740.299815
 20
46.437195
 30
0.0
 10
737.375890
 20
48.125747
 30
0.0
 10
733.773147
 20
48.125747
 30
0.0
 10
730.849222
 20
46.437195
 30
0.0
  0
SPLINE
  5
109
100
AcDbEntity
  8
0
 62
7
100
AcDbSpline
 70
8
 71
3
 72
8
 73
4
 74
0
 40
0
 40
0
 40
0
 40
0
 40
1
 40
1
 40
1
 40
1
 10
730.849222
 20
46.437195
 30
0.0
 10
727.925296
 20
44.748643
 30
0.0
 10
726.124602
 20
41.628186
 30
0.0
 10
726.125700
 20
38.251716
 30
0.0
  0
SPLINE
  5
10a
100
AcDbEntity
  8
0
 62
7
100
AcDbSpline
 70
8
 71
3
 72
8
 73
4
 74
0
 40
0
 40
0
 40
0
 40
0
 40
1
 40
1
 40
1
 40
1
 10
726.125700
 20
38.251716
 30
0.0
 10
726.124602
 20
34.875246
 30
0.0
 10
727.925296
 20
31.754789
 30
0.0
 10
730.849222
 20
30.066237
 30
0.0
  0
SPLINE
  5
10b
100
AcDbEntity
  8
0
 62
7
100
AcDbSpline
 70
8
 71
3
 72
8
 73
4
 74
0
 40
0
 40
0
 40
0
 40
0
 40
1
 40
1
 40
1
 40
1
 10
730.849222
 20
30.066237
 30
0.0
 10
733.773147
 20
28.377685
 30
0.0
 10
737.375890
 20
28.377685
 30
0.0
 10
740.299815
 20
30.066237
 30
0.0
  0
SPLINE
  5
10c
100
AcDbEntity
  8
0
 62
7
100
AcDbSpline
 70
8
 71
3
 72
8
 73
4
 74
0
 40
0
 40
0
 40
0
 40
0
 40
1
 40
1
 40
1
 40
1
 10
740.299815
 20
30.066237
 30
0.0
 10
743.223741
 20
31.754789
 30
0.0
 10
745.024435
 20
34.875246
 30
0.0
 10
745.023337
 20
38.251716
 30
0.0
  0
LINE
  5
10d
100
AcDbEntity
  8
0
 62
7
100
AcDbLine
 10
745.023337
 20
38.251716
 30
0.0
 11
745.023337
 21
38.251716
 31
0.0
  0
SPLINE
  5
10e
100
AcDbEntity
  8
0
 62
7
100
AcDbSpline
 70
8
 71
3
 72
8
 73
4
 74
0
 40
0
 40
0
 40
0
 40
0
 40
1
 40
1
 40
1
 40
1
 10
213.999710
 20
38.251716
 30
0.0
 10
214.002818
 20
41.629523
 30
0.0
 10
212.202564
 20
44.752077
 30
0.0
 10
209.277814
 20
46.441878
 30
0.0
  0
SPLINE
  5
10f
100
AcDbEntity
  8
0
 62
7
100
AcDbSpline
 70
8
 71
3
 72
8
 73
4
 74
0
 40
0
 40
0
 40
0
 40
0
 40
1
 40
1
 40
1
 40
1
 10
209.277814
 20
46.441878
 30
0.0
 10
206.353064
 20
48.131680
 30
0.0
 10
202.748726
 20
48.131680
 30
0.0
 10
199.823976
 20
46.441878
 30
0.0
  0
SPLINE
  5
110
100
AcDbEntity
  8
0
 62
7
100
AcDbSpline
 70
8
 71
3
 72
8
 73
4
 74
0
 40
0
 40
0
 40
0
 40
0
 40
1
 40
1
 40
1
 40
1
 10
199.823976
 20
46.441878
 30
0.0
 10
196.899226
 20
44.752077
 30
0.0
 10
195.098972
 20
41.629523
 30
0.0
 10
195.102080
 20
38.251716
 30
0.0
  0
SPLINE
  5
111
100
AcDbEntity
  8
0
 62
7
100
AcDbSpline
 70
8
 71
3
 72
8
 73
4
 74
0
 40
0
 40
0
 40
0
 40
0
 40
1
 40
1
 40
1
 40
1
 10
195.102080
 20
38.251716
 30
0.0
 10
195.098972
 20
34.873909
 30
0.0
 10
196.899226
 20
31.751355
 30
0.0
 10
199.823976
 20
30.061554
 30
0.0
  0
SPLINE
  5
112
100
AcDbEntity
  8
0
 62
7
100
AcDbSpline
 70
8
 71
3
 72
8
 73
4
 74
0
 40
0
 40
0
 40
0
 40
0
 40
1
 40
1
 40
1
 40
1
 10
199.823976
 20
30.061554
 30
0.0
 10
202.748726
 20
28.371752
 30
0.0
 10
206.353064
 20
28.371752
 30
0.0
 10
209.277814
 20
30.061554
 30
0.0
  0
SPLINE
  5
113
100
AcDbEntity
  8
0
 62
7
100
AcDbSpline
 70
8
 71
3
 72
8
 73
4
 74
0
 40
0
 40
0
 40
0
 40
0
 40
1
 40
1
 40
1
 40
1
 10
209.277814
 20
30.061554
 30
0.0
 10
212.202564
 20
31.751355
 30
0.0
 10
214.002818
 20
34.873909
 30
0.0
 10
213.999710
 20
38.251716
 30
0.0
  0
LINE
  5
114
100
AcDbEntity
  8
0
 62
7
100
AcDbLine
 10
213.999710
 20
38.251716
 30
0.0
 11
213.999710
 21
38.251716
 31
0.0
  0
SPLINE
  5
115
100
AcDbEntity
  8
0
 62
7
100
AcDbSpline
 70
8
 71
3
 72
8
 73
4
 74
0
 40
0
 40
0
 40
0
 40
0
 40
1
 40
1
 40
1
 40
1
 10
310.377670
 20
323.606076
 30
0.0
 10
310.377670
 20
326.981814
 30
0.0
 10
308.576735
 20
330.101125
 30
0.0
 10
305.653260
 20
331.788994
 30
0.0
  0
SPLINE
  5
116
100
AcDbEntity
  8
0
 62
7
100
AcDbSpline
 70
8
 71
3
 72
8
 73
4
 74
0
 40
0
 40
0
 40
0
 40
0
 40
1
 40
1
 40
1
 40
1
 10
305.653260
 20
331.788994
 30
0.0
 10
302.729785
 20
333.476863
 30
0.0
 10
299.127915
 20
333.476863
 30
0.0
 10
296.204440
 20
331.788994
 30
0.0
  0
SPLINE
  5
117
100
AcDbEntity
  8
0
 62
7
100
AcDbSpline
 70
8
 71
3
 72
8
 73
4
 74
0
 40
0
 40
0
 40
0
 40
0
 40
1
 40
1
 40
1
 40
1
 10
296.204440
 20
331.788994
 30
0.0
 10
293.280965
 20
330.101125
 30
0.0
 10
291.480030
 20
326.981814
 30
0.0
 10
291.480030
 20
323.606076
 30
0.0
  0
SPLINE
  5
118
100
AcDbEntity
  8
0
 62
7
100
AcDbSpline
 70
8
 71
3
 72
8
 73
4
 74
0
 40
0
 40
0
 40
0
 40
0
 40
1
 40
1
 40
1
 40
1
 10
291.480030
 20
323.606076
 30
0.0
 10
291.480030
 20
320.230338
 30
0.0
 10
293.280965
 20
317.111027
 30
0.0
 10
296.204440
 20
315.423158
 30
0.0
  0
SPLINE
  5
119
100
AcDbEntity
  8
0
 62
7
100
AcDbSpline
 70
8
 71
3
 72
8
 73
4
 74
0
 40
0
 40
0
 40
0
 40
0
 40
1
 40
1
 40
1
 40
1
 10
296.204440
 20
315.423158
 30
0.0
 10
299.127915
 20
313.735289
 30
0.0
 10
302.729785
 20
313.735289
 30
0.0
 10
305.653260
 20
315.423158
 30
0.0
  0
SPLINE
  5
11a
100
AcDbEntity
  8
0
 62
7
100
AcDbSpline
 70
8
 71
3
 72
8
 73
4
 74
0
 40
0
 40
0
 40
0
 40
0
 40
1
 40
1
 40
1
 40
1
 10
305.653260
 20
315.423158
 30
0.0
 10
308.576735
 20
317.111027
 30
0.0
 10
310.377670
 20
320.230338
 30
0.0
 10
310.377670
 20
323.606076
 30
0.0
  0
LINE
  5
11b
100
AcDbEntity
  8
0
 62
7
100
AcDbLine
 10
310.377670
 20
323.606076
 30
0.0
 11
310.377670
 21
323.606076
 31
0.0
  0
SPLINE
  5
11c
100
AcDbEntity
  8
0
 62
7
100
AcDbSpline
 70
8
 71
3
 72
8
 73
4
 74
0
 40
0
 40
0
 40
0
 40
0
 40
1
 40
1
 40
1
 40
1
 10
157.306800
 20
393.205716
 30
0.0
 10
157.309748
 20
397.258565
 30
0.0
 10
155.149272
 20
401.004814
 30
0.0
 10
151.639892
 20
403.032090
 30
0.0
  0
SPLINE
  5
11d
100
AcDbEntity
  8
0
 62
7
100
AcDbSpline
 70
8
 71
3
 72
8
 73
4
 74
0
 40
0
 40
0
 40
0
 40
0
 40
1
 40
1
 40
1
 40
1
 10
151.639892
 20
403.032090
 30
0.0
 10
148.130513
 20
405.059366
 30
0.0
 10
143.805927
 20
405.059366
 30
0.0
 10
140.296548
 20
403.032090
 30
0.0
  0
SPLINE
  5
11e
100
AcDbEntity
  8
0
 62
7
100
AcDbSpline
 70
8
 71
3
 72
8
 73
4
 74
0
 40
0
 40
0
 40
0
 40
0
 40
1
 40
1
 40
1
 40
1
 10
140.296548
 20
403.032090
 30
0.0
 10
136.787168
 20
401.004814
 30
0.0
 10
134.626692
 20
397.258565
 30
0.0
 10
134.629640
 20
393.205716
 30
0.0
  0
SPLINE
  5
11f
100
AcDbEntity
  8
0
 62
7
100
AcDbSpline
 70
8
 71
3
 72
8
 73
4
 74
0
 40
0
 40
0
 40
0
 40
0
 40
1
 40
1
 40
1
 40
1
 10
134.629640
 20
393.205716
 30
0.0
 10
134.626692
 20
389.152867
 30
0.0
 10
136.787168
 20
385.406618
 30
0.0
 10
140.296548
 20
383.379342
 30
0.0
  0
SPLINE
  5
120
100
AcDbEntity
  8
0
 62
7
100
AcDbSpline
 70
8
 71
3
 72
8
 73
4
 74
0
 40
0
 40
0
 40
0
 40
0
 40
1
 40
1
 40
1
 40
1
 10
140.296548
 20
383.379342
 30
0.0
 10
143.805927
 20
381.352066
 30
0.0
 10
148.130513
 20
381.352066
 30
0.0
 10
151.639892
 20
383.379342
 30
0.0
  0
SPLINE
  5
121
100
AcDbEntity
  8
0
 62
7
100
AcDbSpline
 70
8
 71
3
 72
8
 73
4
 74
0
 40
0
 40
0
 40
0
 40
0
 40
1
 40
1
 40
1
 40
1
 10
151.639892
 20
383.379342
 30
0.0
 10
155.149272
 20
385.406618
 30
0.0
 10
157.309748
 20
389.152867
 30
0.0
 10
157.306800
 20
393.205716
 30
0.0
  0
LINE
  5
122
100
AcDbEntity
  8
0
 62
7
100
AcDbLine
 10
157.306800
 20
393.205716
 30
0.0
 11
157.306800
 21
393.205716
 31
0.0
  0
SPLINE
  5
123
100
AcDbEntity
  8
0
 62
7
100
AcDbSpline
 70
8
 71
3
 72
8
 73
4
 74
0
 40
0
 40
0
 40
0
 40
0
 40
1
 40
1
 40
1
 40
1
 10
55.259560
 20
393.205716
 30
0.0
 10
55.259560
 20
397.256602
 30
0.0
 10
53.098438
 20
400.999776
 30
0.0
 10
49.590268
 20
403.025219
 30
0.0
  0
SPLINE
  5
124
100
AcDbEntity
  8
0
 62
7
100
AcDbSpline
 70
8
 71
3
 72
8
 73
4
 74
0
 40
0
 40
0
 40
0
 40
0
 40
1
 40
1
 40
1
 40
1
 10
49.590268
 20
403.025219
 30
0.0
 10
46.082097
 20
405.050662
 30
0.0
 10
41.759853
 20
405.050662
 30
0.0
 10
38.251683
 20
403.025219
 30
0.0
  0
SPLINE
  5
125
100
AcDbEntity
  8
0
 62
7
100
AcDbSpline
 70
8
 71
3
 72
8
 73
4
 74
0
 40
0
 40
0
 40
0
 40
0
 40
1
 40
1
 40
1
 40
1
 10
38.251683
 20
403.025219
 30
0.0
 10
34.743512
 20
400.999776
 30
0.0
 10
32.582390
 20
397.256602
 30
0.0
 10
32.582390
 20
393.205716
 30
0.0
  0
SPLINE
  5
126
100
AcDbEntity
  8
0
 62
7
100
AcDbSpline
 70
8
 71
3
 72
8
 73
4
 74
0
 40
0
 40
0
 40
0
 40
0
 40
1
 40
1
 40
1
 40
1
 10
32.582390
 20
393.205716
 30
0.0
 10
32.582390
 20
389.154830
 30
0.0
 10
34.743512
 20
385.411656
 30
0.0
 10
38.251683
 20
383.386213
 30
0.0
  0
SPLINE
  5
127
100
AcDbEntity
  8
0
 62
7
100
AcDbSpline
 70
8
 71
3
 72
8
 73
4
 74
0
 40
0
 40
0
 40
0
 40
0
 40
1
 40
1
 40
1
 40
1
 10
38.251683
 20
383.386213
 30
0.0
 10
41.759853
 20
381.360770
 30
0.0
 10
46.082097
 20
381.360770
 30
0.0
 10
49.590268
 20
383.386213
 30
0.0
  0
SPLINE
  5
128
100
AcDbEntity
  8
0
 62
7
100
AcDbSpline
 70
8
 71
3
 72
8
 73
4
 74
0
 40
0
 40
0
 40
0
 40
0
 40
1
 40
1
 40
1
 40
1
 10
49.590268
 20
383.386213
 30
0.0
 10
53.098438
 20
385.411656
 30
0.0
 10
55.259560
 20
389.154830
 30
0.0
 10
55.259560
 20
393.205716
 30
0.0
  0
LINE
  5
129
100
AcDbEntity
  8
0
 62
7
100
AcDbLine
 10
55.259560
 20
393.205716
 30
0.0
 11
55.259560
 21
393.205716
 31
0.0
  0
SPLINE
  5
12a
100
AcDbEntity
  8
0
 62
7
100
AcDbSpline
 70
8
 71
3
 72
8
 73
4
 74
0
 40
0
 40
0
 40
0
 40
0
 40
1
 40
1
 40
1
 40
1
 10
811.165070
 20
393.205716
 30
0.0
 10
811.165070
 20
397.256602
 30
0.0
 10
809.003948
 20
400.999774
 30
0.0
 10
805.495779
 20
403.025217
 30
0.0
  0
SPLINE
  5
12b
100
AcDbEntity
  8
0
 62
7
100
AcDbSpline
 70
8
 71
3
 72
8
 73
4
 74
0
 40
0
 40
0
 40
0
 40
0
 40
1
 40
1
 40
1
 40
1
 10
805.495779
 20
403.025217
 30
0.0
 10
801.987609
 20
405.050660
 30
0.0
 10
797.665365
 20
405.050660
 30
0.0
 10
794.157196
 20
403.025217
 30
0.0
  0
SPLINE
  5
12c
100
AcDbEntity
  8
0
 62
7
100
AcDbSpline
 70
8
 71
3
 72
8
 73
4
 74
0
 40
0
 40
0
 40
0
 40
0
 40
1
 40
1
 40
1
 40
1
 10
794.157196
 20
403.025217
 30
0.0
 10
790.649026
 20
400.999774
 30
0.0
 10
788.487904
 20
397.256602
 30
0.0
 10
788.487904
 20
393.205716
 30
0.0
  0
SPLINE
  5
12d
100
AcDbEntity
  8
0
 62
7
100
AcDbSpline
 70
8
 71
3
 72
8
 73
4
 74
0
 40
0
 40
0
 40
0
 40
0
 40
1
 40
1
 40
1
 40
1
 10
788.487904
 20
393.205716
 30
0.0
 10
788.487904
 20
389.154830
 30
0.0
 10
790.649026
 20
385.411658
 30
0.0
 10
794.157196
 20
383.386215
 30
0.0
  0
SPLINE
  5
12e
100
AcDbEntity
  8
0
 62
7
100
AcDbSpline
 70
8
 71
3
 72
8
 73
4
 74
0
 40
0
 40
0
 40
0
 40
0
 40
1
 40
1
 40
1
 40
1
 10
794.157196
 20
383.386215
 30
0.0
 10
797.665365
 20
381.360772
 30
0.0
 10
801.987609
 20
381.360772
 30
0.0
 10
805.495779
 20
383.386215
 30
0.0
  0
SPLINE
  5
12f
100
AcDbEntity
  8
0
 62
7
100
AcDbSpline
 70
8
 71
3
 72
8
 73
4
 74
0
 40
0
 40
0
 40
0
 40
0
 40
1
 40
1
 40
1
 40
1
 10
805.495779
 20
383.386215
 30
0.0
 10
809.003948
 20
385.411658
 30
0.0
 10
811.165070
 20
389.154830
 30
0.0
 10
811.165070
 20
393.205716
 30
0.0
  0
LINE
  5
130
100
AcDbEntity
  8
0
 62
7
100
AcDbLine
 10
811.165070
 20
393.205716
 30
0.0
 11
811.165070
 21
393.205716
 31
0.0
  0
SPLINE
  5
131
100
AcDbEntity
  8
0
 62
7
100
AcDbSpline
 70
8
 71
3
 72
8
 73
4
 74
0
 40
0
 40
0
 40
0
 40
0
 40
1
 40
1
 40
1
 40
1
 10
913.212310
 20
393.205716
 30
0.0
 10
913.215258
 20
397.258565
 30
0.0
 10
911.054782
 20
401.004814
 30
0.0
 10
907.545402
 20
403.032090
 30
0.0
  0
SPLINE
  5
132
100
AcDbEntity
  8
0
 62
7
100
AcDbSpline
 70
8
 71
3
 72
8
 73
4
 74
0
 40
0
 40
0
 40
0
 40
0
 40
1
 40
1
 40
1
 40
1
 10
907.545402
 20
403.032090
 30
0.0
 10
904.036023
 20
405.059366
 30
0.0
 10
899.711437
 20
405.059366
 30
0.0
 10
896.202058
 20
403.032090
 30
0.0
  0
SPLINE
  5
133
100
AcDbEntity
  8
0
 62
7
100
AcDbSpline
 70
8
 71
3
 72
8
 73
4
 74
0
 40
0
 40
0
 40
0
 40
0
 40
1
 40
1
 40
1
 40
1
 10
896.202058
 20
403.032090
 30
0.0
 10
892.692678
 20
401.004814
 30
0.0
 10
890.532202
 20
397.258565
 30
0.0
 10
890.535150
 20
393.205716
 30
0.0
  0
SPLINE
  5
134
100
AcDbEntity
  8
0
 62
7
100
AcDbSpline
 70
8
 71
3
 72
8
 73
4
 74
0
 40
0
 40
0
 40
0
 40
0
 40
1
 40
1
 40
1
 40
1
 10
890.535150
 20
393.205716
 30
0.0
 10
890.532202
 20
389.152867
 30
0.0
 10
892.692678
 20
385.406618
 30
0.0
 10
896.202058
 20
383.379342
 30
0.0
  0
SPLINE
  5
135
100
AcDbEntity
  8
0
 62
7
100
AcDbSpline
 70
8
 71
3
 72
8
 73
4
 74
0
 40
0
 40
0
 40
0
 40
0
 40
1
 40
1
 40
1
 40
1
 10
896.202058
 20
383.379342
 30
0.0
 10
899.711437
 20
381.352066
 30
0.0
 10
904.036023
 20
381.352066
 30
0.0
 10
907.545402
 20
383.379342
 30
0.0
  0
SPLINE
  5
136
100
AcDbEntity
  8
0
 62
7
100
AcDbSpline
 70
8
 71
3
 72
8
 73
4
 74
0
 40
0
 40
0
 40
0
 40
0
 40
1
 40
1
 40
1
 40
1
 10
907.545402
 20
383.379342
 30
0.0
 10
911.054782
 20
385.406618
 30
0.0
 10
913.215258
 20
389.152867
 30
0.0
 10
913.212310
 20
393.205716
 30
0.0
  0
LINE
  5
137
100
AcDbEntity
  8
0
 62
7
100
AcDbLine
 10
913.212310
 20
393.205716
 30
0.0
 11
913.212310
 21
393.205716
 31
0.0
  0
LINE
  5
138
100
AcDbEntity
  8
0
 62
7
100
AcDbLine
 10
0.456410
 20
0.456416
 30
0.0
 11
945.338300
 21
0.456416
 31
0.0
  0
LINE
  5
139
100
AcDbEntity
  8
0
 62
7
100
AcDbLine
 10
0.456410
 20
448.008866
 30
0.0
 11
0.456410
 21
0.456416
 31
0.0
  0
LINE
  5
13a
100
AcDbEntity
  8
0
 62
7
100
AcDbLine
 10
715.609409
 20
337.779296
 30
0.0
 11
345.229920
 21
337.779296
 31
0.0
  0
LINE
  5
13b
100
AcDbEntity
  8
0
 62
7
100
AcDbLine
 10
345.229920
 20
337.779296
 30
0.0
 11
345.229920
 21
301.616266
 31
0.0
  0
LINE
  5
13c
100
AcDbEntity
  8
0
 62
7
100
AcDbLine
 10
345.229920
 20
301.616266
 30
0.0
 11
198.881600
 21
301.616266
 31
0.0
  0
LINE
  5
13d
100
AcDbEntity
  8
0
 62
7
100
AcDbLine
 10
198.881600
 20
301.616266
 30
0.0
 11
198.881600
 21
53.369816
 31
0.0
  0
LINE
  5
13e
100
AcDbEntity
  8
0
 62
7
100
AcDbLine
 10
198.881600
 20
53.369816
 30
0.0
 11
430.745510
 21
53.369816
 31
0.0
  0
LINE
  5
13f
100
AcDbEntity
  8
0
 62
7
100
AcDbLine
 10
430.745510
 20
53.369816
 30
0.0
 11
430.745510
 21
23.133616
 31
0.0
  0
LINE
  5
140
100
AcDbEntity
  8
0
 62
7
100
AcDbLine
 10
430.745510
 20
23.133616
 30
0.0
 11
715.609409
 21
23.133616
 31
0.0
  0
LINE
  5
141
100
AcDbEntity
  8
0
 62
7
100
AcDbLine
 10
715.609409
 20
23.133616
 30
0.0
 11
715.609409
 21
337.779296
 31
0.0
  0
LINE
  5
142
100
AcDbEntity
  8
0
 62
7
100
AcDbLine
 10
945.338300
 20
448.008866
 30
0.0
 11
0.456410
 21
448.008866
 31
0.0
  0
LINE
  5
143
100
AcDbEntity
  8
0
 62
7
100
AcDbLine
 10
945.338300
 20
0.456416
 30
0.0
 11
945.338300
 21
448.008866
 31
0.0
  0
ENDSEC
  0
SECTION
  2
OBJECTS
  0
DICTIONARY
  5
C
330
0
100
AcDbDictionary
  3
ACAD_GROUP
350
D
  3
ACAD_MLINESTYLE
350
17
  0
DICTIONARY
  5
D
330
C
100
AcDbDictionary
  0
DICTIONARY
  5
1A
330
C
100
AcDbDictionary
  0
DICTIONARY
  5
17
330
C
100
AcDbDictionary
  3
STANDARD
350
18
  0
DICTIONARY
  5
19
330
C
100
AcDbDictionary
  0
ENDSEC
  0
EOF
