  0
SECTION
  2
HEADER
  9
$ACADVER
  1
AC1014
  9
$HANDSEED
  5
FFFF
  9
$MEASUREMENT
 70
     1
  0
ENDSEC
  0
SECTION
  2
TABLES
  0
TABLE
  2
VPORT
  5
8
330
0
100
AcDbSymbolTable
 70
     4
  0
VPORT
  5
2E
330
8
100
AcDbSymbolTableRecord
100
AcDbViewportTableRecord
  2
*ACTIVE
 70
     0
 10
0.0
 20
0.0
 11
1.0
 21
1.0
 12
210.0
 22
148.5
 13
0.0
 23
0.0
 14
10.0
 24
10.0
 15
10.0
 25
10.0
 16
0.0
 26
0.0
 36
1.0
 17
0.0
 27
0.0
 37
0.0
 40
341.0
 41
1.24
 42
50.0
 43
0.0
 44
0.0
 50
0.0
 51
0.0
 71
     0
 72
   100
 73
     1
 74
     3
 75
     0
 76
     0
 77
     0
 78
     0
  0
ENDTAB
  0
TABLE
  2
LTYPE
  5
5
330
0
100
AcDbSymbolTable
 70
     1
  0
LTYPE
  5
14
330
5
100
AcDbSymbolTableRecord
100
AcDbLinetypeTableRecord
  2
BYBLOCK
 70
     0
  3

 72
    65
 73
     0
 40
0.0
  0
LTYPE
  5
15
330
5
100
AcDbSymbolTableRecord
100
AcDbLinetypeTableRecord
  2
BYLAYER
 70
     0
  3

 72
    65
 73
     0
 40
0.0
  0
LTYPE
  5
16
330
5
100
AcDbSymbolTableRecord
100
AcDbLinetypeTableRecord
  2
CONTINUOUS
 70
     0
  3
Solid line
 72
    65
 73
     0
 40
0.0
  0
ENDTAB
  0
TABLE
  2
LAYER
  5
2
100
AcDbSymbolTable
 70
1
  0
LAYER
  5
50
100
AcDbSymbolTableRecord
100
AcDbLayerTableRecord
  2
0
 70
0
  6
CONTINUOUS
  0
ENDTAB
  0
TABLE
  2
STYLE
  5
3
330
0
100
AcDbSymbolTable
 70
     1
  0
STYLE
  5
11
330
3
100
AcDbSymbolTableRecord
100
AcDbTextStyleTableRecord
  2
STANDARD
 70
     0
 40
0.0
 41
1.0
 50
0.0
 71
     0
 42
2.5
  3
txt
  4

  0
ENDTAB
  0
TABLE
  2
VIEW
  5
6
330
0
100
AcDbSymbolTable
 70
     0
  0
ENDTAB
  0
TABLE
  2
UCS
  5
7
330
0
100
AcDbSymbolTable
 70
     0
  0
ENDTAB
  0
TABLE
  2
APPID
  5
9
330
0
100
AcDbSymbolTable
 70
     2
  0
APPID
  5
12
330
9
100
AcDbSymbolTableRecord
100
AcDbRegAppTableRecord
  2
ACAD
 70
     0
  0
ENDTAB
  0
TABLE
  2
DIMSTYLE
  5
A
330
0
100
AcDbSymbolTable
 70
     1
  0
DIMSTYLE
105
27
330
A
100
AcDbSymbolTableRecord
100
AcDbDimStyleTableRecord
  2
ISO-25
 70
     0
  3

  4

  5

  6

  7

 40
1.0
 41
2.5
 42
0.625
 43
3.75
 44
1.25
 45
0.0
 46
0.0
 47
0.0
 48
0.0
140
2.5
141
2.5
142
0.0
143
0.03937007874016
144
1.0
145
0.0
146
1.0
147
0.625
 71
     0
 72
     0
 73
     0
 74
     0
 75
     0
 76
     0
 77
     1
 78
     8
170
     0
171
     3
172
     1
173
     0
174
     0
175
     0
176
     0
177
     0
178
     0
270
     2
271
     2
272
     2
273
     2
274
     3
340
11
275
     0
280
     0
281
     0
282
     0
283
     0
284
     8
285
     0
286
     0
287
     3
288
     0
  0
ENDTAB
  0
TABLE
  2
BLOCK_RECORD
  5
1
330
0
100
AcDbSymbolTable
 70
     1
  0
BLOCK_RECORD
  5
1F
330
1
100
AcDbSymbolTableRecord
100
AcDbBlockTableRecord
  2
*MODEL_SPACE
  0
BLOCK_RECORD
  5
1B
330
1
100
AcDbSymbolTableRecord
100
AcDbBlockTableRecord
  2
*PAPER_SPACE
  0
ENDTAB
  0
ENDSEC
  0
SECTION
  2
BLOCKS
  0
BLOCK
  5
20
330
1F
100
AcDbEntity
  8
0
100
AcDbBlockBegin
  2
*MODEL_SPACE
 70
     0
 10
0.0
 20
0.0
 30
0.0
  3
*MODEL_SPACE
  1

  0
ENDBLK
  5
21
330
1F
100
AcDbEntity
  8
0
100
AcDbBlockEnd
  0
BLOCK
  5
1C
330
1B
100
AcDbEntity
 67
     1
  8
0
100
AcDbBlockBegin
  2
*PAPER_SPACE
  1

  0
ENDBLK
  5
1D
330
1B
100
AcDbEntity
 67
     1
  8
0
100
AcDbBlockEnd
  0
ENDSEC
  0
SECTION
  2
ENTITIES
  0
SPLINE
  5
100
100
AcDbEntity
  8
0
 62
7
100
AcDbSpline
 70
8
 71
3
 72
8
 73
4
 74
0
 40
0
 40
0
 40
0
 40
0
 40
1
 40
1
 40
1
 40
1
 10
745.023340
 20
635.417006
 30
0.0
 10
745.023340
 20
638.117596
 30
0.0
 10
743.582592
 20
640.613044
 30
0.0
 10
741.243813
 20
641.963339
 30
0.0
  0
SPLINE
  5
101
100
AcDbEntity
  8
0
 62
7
100
AcDbSpline
 70
8
 71
3
 72
8
 73
4
 74
0
 40
0
 40
0
 40
0
 40
0
 40
1
 40
1
 40
1
 40
1
 10
741.243813
 20
641.963339
 30
0.0
 10
738.905033
 20
643.313634
 30
0.0
 10
736.023537
 20
643.313634
 30
0.0
 10
733.684758
 20
641.963339
 30
0.0
  0
SPLINE
  5
102
100
AcDbEntity
  8
0
 62
7
100
AcDbSpline
 70
8
 71
3
 72
8
 73
4
 74
0
 40
0
 40
0
 40
0
 40
0
 40
1
 40
1
 40
1
 40
1
 10
733.684758
 20
641.963339
 30
0.0
 10
731.345978
 20
640.613044
 30
0.0
 10
729.905230
 20
638.117596
 30
0.0
 10
729.905230
 20
635.417006
 30
0.0
  0
SPLINE
  5
103
100
AcDbEntity
  8
0
 62
7
100
AcDbSpline
 70
8
 71
3
 72
8
 73
4
 74
0
 40
0
 40
0
 40
0
 40
0
 40
1
 40
1
 40
1
 40
1
 10
729.905230
 20
635.417006
 30
0.0
 10
729.905230
 20
632.716415
 30
0.0
 10
731.345978
 20
630.220967
 30
0.0
 10
733.684758
 20
628.870672
 30
0.0
  0
SPLINE
  5
104
100
AcDbEntity
  8
0
 62
7
100
AcDbSpline
 70
8
 71
3
 72
8
 73
4
 74
0
 40
0
 40
0
 40
0
 40
0
 40
1
 40
1
 40
1
 40
1
 10
733.684758
 20
628.870672
 30
0.0
 10
736.023537
 20
627.520377
 30
0.0
 10
738.905033
 20
627.520377
 30
0.0
 10
741.243813
 20
628.870672
 30
0.0
  0
SPLINE
  5
105
100
AcDbEntity
  8
0
 62
7
100
AcDbSpline
 70
8
 71
3
 72
8
 73
4
 74
0
 40
0
 40
0
 40
0
 40
0
 40
1
 40
1
 40
1
 40
1
 10
741.243813
 20
628.870672
 30
0.0
 10
743.582592
 20
630.220967
 30
0.0
 10
745.023340
 20
632.716415
 30
0.0
 10
745.023340
 20
635.417006
 30
0.0
  0
LINE
  5
106
100
AcDbEntity
  8
0
 62
7
100
AcDbLine
 10
745.023340
 20
635.417006
 30
0.0
 11
745.023340
 21
635.417006
 31
0.0
  0
SPLINE
  5
107
100
AcDbEntity
  8
0
 62
7
100
AcDbSpline
 70
8
 71
3
 72
8
 73
4
 74
0
 40
0
 40
0
 40
0
 40
0
 40
1
 40
1
 40
1
 40
1
 10
745.023340
 20
310.377706
 30
0.0
 10
745.023340
 20
313.078296
 30
0.0
 10
743.582592
 20
315.573744
 30
0.0
 10
741.243813
 20
316.924039
 30
0.0
  0
SPLINE
  5
108
100
AcDbEntity
  8
0
 62
7
100
AcDbSpline
 70
8
 71
3
 72
8
 73
4
 74
0
 40
0
 40
0
 40
0
 40
0
 40
1
 40
1
 40
1
 40
1
 10
741.243813
 20
316.924039
 30
0.0
 10
738.905033
 20
318.274334
 30
0.0
 10
736.023537
 20
318.274334
 30
0.0
 10
733.684758
 20
316.924039
 30
0.0
  0
SPLINE
  5
109
100
AcDbEntity
  8
0
 62
7
100
AcDbSpline
 70
8
 71
3
 72
8
 73
4
 74
0
 40
0
 40
0
 40
0
 40
0
 40
1
 40
1
 40
1
 40
1
 10
733.684758
 20
316.924039
 30
0.0
 10
731.345978
 20
315.573744
 30
0.0
 10
729.905230
 20
313.078296
 30
0.0
 10
729.905230
 20
310.377706
 30
0.0
  0
SPLINE
  5
10a
100
AcDbEntity
  8
0
 62
7
100
AcDbSpline
 70
8
 71
3
 72
8
 73
4
 74
0
 40
0
 40
0
 40
0
 40
0
 40
1
 40
1
 40
1
 40
1
 10
729.905230
 20
310.377706
 30
0.0
 10
729.905230
 20
307.677115
 30
0.0
 10
731.345978
 20
305.181667
 30
0.0
 10
733.684758
 20
303.831372
 30
0.0
  0
SPLINE
  5
10b
100
AcDbEntity
  8
0
 62
7
100
AcDbSpline
 70
8
 71
3
 72
8
 73
4
 74
0
 40
0
 40
0
 40
0
 40
0
 40
1
 40
1
 40
1
 40
1
 10
733.684758
 20
303.831372
 30
0.0
 10
736.023537
 20
302.481077
 30
0.0
 10
738.905033
 20
302.481077
 30
0.0
 10
741.243813
 20
303.831372
 30
0.0
  0
SPLINE
  5
10c
100
AcDbEntity
  8
0
 62
7
100
AcDbSpline
 70
8
 71
3
 72
8
 73
4
 74
0
 40
0
 40
0
 40
0
 40
0
 40
1
 40
1
 40
1
 40
1
 10
741.243813
 20
303.831372
 30
0.0
 10
743.582592
 20
305.181667
 30
0.0
 10
745.023340
 20
307.677115
 30
0.0
 10
745.023340
 20
310.377706
 30
0.0
  0
LINE
  5
10d
100
AcDbEntity
  8
0
 62
7
100
AcDbLine
 10
745.023340
 20
310.377706
 30
0.0
 11
745.023340
 21
310.377706
 31
0.0
  0
SPLINE
  5
10e
100
AcDbEntity
  8
0
 62
7
100
AcDbSpline
 70
8
 71
3
 72
8
 73
4
 74
0
 40
0
 40
0
 40
0
 40
0
 40
1
 40
1
 40
1
 40
1
 10
986.913110
 20
310.377706
 30
0.0
 10
986.913110
 20
313.078296
 30
0.0
 10
985.472362
 20
315.573744
 30
0.0
 10
983.133583
 20
316.924039
 30
0.0
  0
SPLINE
  5
10f
100
AcDbEntity
  8
0
 62
7
100
AcDbSpline
 70
8
 71
3
 72
8
 73
4
 74
0
 40
0
 40
0
 40
0
 40
0
 40
1
 40
1
 40
1
 40
1
 10
983.133583
 20
316.924039
 30
0.0
 10
980.794803
 20
318.274334
 30
0.0
 10
977.913307
 20
318.274334
 30
0.0
 10
975.574528
 20
316.924039
 30
0.0
  0
SPLINE
  5
110
100
AcDbEntity
  8
0
 62
7
100
AcDbSpline
 70
8
 71
3
 72
8
 73
4
 74
0
 40
0
 40
0
 40
0
 40
0
 40
1
 40
1
 40
1
 40
1
 10
975.574528
 20
316.924039
 30
0.0
 10
973.235748
 20
315.573744
 30
0.0
 10
971.795000
 20
313.078296
 30
0.0
 10
971.795000
 20
310.377706
 30
0.0
  0
SPLINE
  5
111
100
AcDbEntity
  8
0
 62
7
100
AcDbSpline
 70
8
 71
3
 72
8
 73
4
 74
0
 40
0
 40
0
 40
0
 40
0
 40
1
 40
1
 40
1
 40
1
 10
971.795000
 20
310.377706
 30
0.0
 10
971.795000
 20
307.677115
 30
0.0
 10
973.235747
 20
305.181667
 30
0.0
 10
975.574527
 20
303.831371
 30
0.0
  0
SPLINE
  5
112
100
AcDbEntity
  8
0
 62
7
100
AcDbSpline
 70
8
 71
3
 72
8
 73
4
 74
0
 40
0
 40
0
 40
0
 40
0
 40
1
 40
1
 40
1
 40
1
 10
975.574527
 20
303.831371
 30
0.0
 10
977.913307
 20
302.481076
 30
0.0
 10
980.794803
 20
302.481076
 30
0.0
 10
983.133583
 20
303.831371
 30
0.0
  0
SPLINE
  5
113
100
AcDbEntity
  8
0
 62
7
100
AcDbSpline
 70
8
 71
3
 72
8
 73
4
 74
0
 40
0
 40
0
 40
0
 40
0
 40
1
 40
1
 40
1
 40
1
 10
983.133583
 20
303.831371
 30
0.0
 10
985.472363
 20
305.181667
 30
0.0
 10
986.913110
 20
307.677115
 30
0.0
 10
986.913110
 20
310.377706
 30
0.0
  0
LINE
  5
114
100
AcDbEntity
  8
0
 62
7
100
AcDbLine
 10
986.913110
 20
310.377706
 30
0.0
 11
986.913110
 21
310.377706
 31
0.0
  0
SPLINE
  5
115
100
AcDbEntity
  8
0
 62
7
100
AcDbSpline
 70
8
 71
3
 72
8
 73
4
 74
0
 40
0
 40
0
 40
0
 40
0
 40
1
 40
1
 40
1
 40
1
 10
986.913110
 20
635.417006
 30
0.0
 10
986.913110
 20
638.117596
 30
0.0
 10
985.472362
 20
640.613044
 30
0.0
 10
983.133583
 20
641.963339
 30
0.0
  0
SPLINE
  5
116
100
AcDbEntity
  8
0
 62
7
100
AcDbSpline
 70
8
 71
3
 72
8
 73
4
 74
0
 40
0
 40
0
 40
0
 40
0
 40
1
 40
1
 40
1
 40
1
 10
983.133583
 20
641.963339
 30
0.0
 10
980.794803
 20
643.313634
 30
0.0
 10
977.913307
 20
643.313634
 30
0.0
 10
975.574528
 20
641.963339
 30
0.0
  0
SPLINE
  5
117
100
AcDbEntity
  8
0
 62
7
100
AcDbSpline
 70
8
 71
3
 72
8
 73
4
 74
0
 40
0
 40
0
 40
0
 40
0
 40
1
 40
1
 40
1
 40
1
 10
975.574528
 20
641.963339
 30
0.0
 10
973.235748
 20
640.613044
 30
0.0
 10
971.795000
 20
638.117596
 30
0.0
 10
971.795000
 20
635.417006
 30
0.0
  0
SPLINE
  5
118
100
AcDbEntity
  8
0
 62
7
100
AcDbSpline
 70
8
 71
3
 72
8
 73
4
 74
0
 40
0
 40
0
 40
0
 40
0
 40
1
 40
1
 40
1
 40
1
 10
971.795000
 20
635.417006
 30
0.0
 10
971.795000
 20
632.716415
 30
0.0
 10
973.235747
 20
630.220967
 30
0.0
 10
975.574527
 20
628.870671
 30
0.0
  0
SPLINE
  5
119
100
AcDbEntity
  8
0
 62
7
100
AcDbSpline
 70
8
 71
3
 72
8
 73
4
 74
0
 40
0
 40
0
 40
0
 40
0
 40
1
 40
1
 40
1
 40
1
 10
975.574527
 20
628.870671
 30
0.0
 10
977.913307
 20
627.520376
 30
0.0
 10
980.794803
 20
627.520376
 30
0.0
 10
983.133583
 20
628.870671
 30
0.0
  0
SPLINE
  5
11a
100
AcDbEntity
  8
0
 62
7
100
AcDbSpline
 70
8
 71
3
 72
8
 73
4
 74
0
 40
0
 40
0
 40
0
 40
0
 40
1
 40
1
 40
1
 40
1
 10
983.133583
 20
628.870671
 30
0.0
 10
985.472363
 20
630.220967
 30
0.0
 10
986.913110
 20
632.716415
 30
0.0
 10
986.913110
 20
635.417006
 30
0.0
  0
LINE
  5
11b
100
AcDbEntity
  8
0
 62
7
100
AcDbLine
 10
986.913110
 20
635.417006
 30
0.0
 11
986.913110
 21
635.417006
 31
0.0
  0
SPLINE
  5
11c
100
AcDbEntity
  8
0
 62
7
100
AcDbSpline
 70
8
 71
3
 72
8
 73
4
 74
0
 40
0
 40
0
 40
0
 40
0
 40
1
 40
1
 40
1
 40
1
 10
892.046960
 20
11.795006
 30
0.0
 10
892.046960
 20
14.495596
 30
0.0
 10
890.606212
 20
16.991044
 30
0.0
 10
888.267433
 20
18.341339
 30
0.0
  0
SPLINE
  5
11d
100
AcDbEntity
  8
0
 62
7
100
AcDbSpline
 70
8
 71
3
 72
8
 73
4
 74
0
 40
0
 40
0
 40
0
 40
0
 40
1
 40
1
 40
1
 40
1
 10
888.267433
 20
18.341339
 30
0.0
 10
885.928653
 20
19.691634
 30
0.0
 10
883.047157
 20
19.691634
 30
0.0
 10
880.708378
 20
18.341339
 30
0.0
  0
SPLINE
  5
11e
100
AcDbEntity
  8
0
 62
7
100
AcDbSpline
 70
8
 71
3
 72
8
 73
4
 74
0
 40
0
 40
0
 40
0
 40
0
 40
1
 40
1
 40
1
 40
1
 10
880.708378
 20
18.341339
 30
0.0
 10
878.369598
 20
16.991044
 30
0.0
 10
876.928850
 20
14.495596
 30
0.0
 10
876.928850
 20
11.795006
 30
0.0
  0
SPLINE
  5
11f
100
AcDbEntity
  8
0
 62
7
100
AcDbSpline
 70
8
 71
3
 72
8
 73
4
 74
0
 40
0
 40
0
 40
0
 40
0
 40
1
 40
1
 40
1
 40
1
 10
876.928850
 20
11.795006
 30
0.0
 10
876.928850
 20
9.094415
 30
0.0
 10
878.369597
 20
6.598967
 30
0.0
 10
880.708377
 20
5.248671
 30
0.0
  0
SPLINE
  5
120
100
AcDbEntity
  8
0
 62
7
100
AcDbSpline
 70
8
 71
3
 72
8
 73
4
 74
0
 40
0
 40
0
 40
0
 40
0
 40
1
 40
1
 40
1
 40
1
 10
880.708377
 20
5.248671
 30
0.0
 10
883.047157
 20
3.898376
 30
0.0
 10
885.928653
 20
3.898376
 30
0.0
 10
888.267433
 20
5.248671
 30
0.0
  0
SPLINE
  5
121
100
AcDbEntity
  8
0
 62
7
100
AcDbSpline
 70
8
 71
3
 72
8
 73
4
 74
0
 40
0
 40
0
 40
0
 40
0
 40
1
 40
1
 40
1
 40
1
 10
888.267433
 20
5.248671
 30
0.0
 10
890.606213
 20
6.598967
 30
0.0
 10
892.046960
 20
9.094415
 30
0.0
 10
892.046960
 20
11.795006
 30
0.0
  0
LINE
  5
122
100
AcDbEntity
  8
0
 62
7
100
AcDbLine
 10
892.046960
 20
11.795006
 30
0.0
 11
892.046960
 21
11.795006
 31
0.0
  0
SPLINE
  5
123
100
AcDbEntity
  8
0
 62
7
100
AcDbSpline
 70
8
 71
3
 72
8
 73
4
 74
0
 40
0
 40
0
 40
0
 40
0
 40
1
 40
1
 40
1
 40
1
 10
839.889480
 20
11.795006
 30
0.0
 10
839.889480
 20
14.495596
 30
0.0
 10
838.448732
 20
16.991044
 30
0.0
 10
836.109952
 20
18.341339
 30
0.0
  0
SPLINE
  5
124
100
AcDbEntity
  8
0
 62
7
100
AcDbSpline
 70
8
 71
3
 72
8
 73
4
 74
0
 40
0
 40
0
 40
0
 40
0
 40
1
 40
1
 40
1
 40
1
 10
836.109952
 20
18.341339
 30
0.0
 10
833.771173
 20
19.691634
 30
0.0
 10
830.889677
 20
19.691634
 30
0.0
 10
828.550898
 20
18.341339
 30
0.0
  0
SPLINE
  5
125
100
AcDbEntity
  8
0
 62
7
100
AcDbSpline
 70
8
 71
3
 72
8
 73
4
 74
0
 40
0
 40
0
 40
0
 40
0
 40
1
 40
1
 40
1
 40
1
 10
828.550898
 20
18.341339
 30
0.0
 10
826.212118
 20
16.991044
 30
0.0
 10
824.771370
 20
14.495596
 30
0.0
 10
824.771370
 20
11.795006
 30
0.0
  0
SPLINE
  5
126
100
AcDbEntity
  8
0
 62
7
100
AcDbSpline
 70
8
 71
3
 72
8
 73
4
 74
0
 40
0
 40
0
 40
0
 40
0
 40
1
 40
1
 40
1
 40
1
 10
824.771370
 20
11.795006
 30
0.0
 10
824.771370
 20
9.094415
 30
0.0
 10
826.212118
 20
6.598967
 30
0.0
 10
828.550898
 20
5.248672
 30
0.0
  0
SPLINE
  5
127
100
AcDbEntity
  8
0
 62
7
100
AcDbSpline
 70
8
 71
3
 72
8
 73
4
 74
0
 40
0
 40
0
 40
0
 40
0
 40
1
 40
1
 40
1
 40
1
 10
828.550898
 20
5.248672
 30
0.0
 10
830.889677
 20
3.898377
 30
0.0
 10
833.771173
 20
3.898377
 30
0.0
 10
836.109952
 20
5.248672
 30
0.0
  0
SPLINE
  5
128
100
AcDbEntity
  8
0
 62
7
100
AcDbSpline
 70
8
 71
3
 72
8
 73
4
 74
0
 40
0
 40
0
 40
0
 40
0
 40
1
 40
1
 40
1
 40
1
 10
836.109952
 20
5.248672
 30
0.0
 10
838.448732
 20
6.598967
 30
0.0
 10
839.889480
 20
9.094415
 30
0.0
 10
839.889480
 20
11.795006
 30
0.0
  0
LINE
  5
129
100
AcDbEntity
  8
0
 62
7
100
AcDbLine
 10
839.889480
 20
11.795006
 30
0.0
 11
839.889480
 21
11.795006
 31
0.0
  0
LINE
  5
12a
100
AcDbEntity
  8
0
 62
7
100
AcDbLine
 10
0.456410
 20
945.338296
 30
0.0
 11
0.456410
 21
0.456406
 31
0.0
  0
LINE
  5
12b
100
AcDbEntity
  8
0
 62
7
100
AcDbLine
 10
0.456410
 20
0.456406
 30
0.0
 11
1183.448540
 21
0.456406
 31
0.0
  0
LINE
  5
12c
100
AcDbEntity
  8
0
 62
7
100
AcDbLine
 10
1183.448540
 20
945.338296
 30
0.0
 11
0.456410
 21
945.338296
 31
0.0
  0
LINE
  5
12d
100
AcDbEntity
  8
0
 62
7
100
AcDbLine
 10
1183.448540
 20
0.456406
 30
0.0
 11
1183.448540
 21
945.338296
 31
0.0
  0
ENDSEC
  0
SECTION
  2
OBJECTS
  0
DICTIONARY
  5
C
330
0
100
AcDbDictionary
  3
ACAD_GROUP
350
D
  3
ACAD_MLINESTYLE
350
17
  0
DICTIONARY
  5
D
330
C
100
AcDbDictionary
  0
DICTIONARY
  5
1A
330
C
100
AcDbDictionary
  0
DICTIONARY
  5
17
330
C
100
AcDbDictionary
  3
STANDARD
350
18
  0
DICTIONARY
  5
19
330
C
100
AcDbDictionary
  0
ENDSEC
  0
EOF
