  0
SECTION
  2
HEADER
  9
$ACADVER
  1
AC1014
  9
$HANDSEED
  5
FFFF
  9
$MEASUREMENT
 70
     1
  0
ENDSEC
  0
SECTION
  2
TABLES
  0
TABLE
  2
VPORT
  5
8
330
0
100
AcDbSymbolTable
 70
     4
  0
VPORT
  5
2E
330
8
100
AcDbSymbolTableRecord
100
AcDbViewportTableRecord
  2
*ACTIVE
 70
     0
 10
0.0
 20
0.0
 11
1.0
 21
1.0
 12
210.0
 22
148.5
 13
0.0
 23
0.0
 14
10.0
 24
10.0
 15
10.0
 25
10.0
 16
0.0
 26
0.0
 36
1.0
 17
0.0
 27
0.0
 37
0.0
 40
341.0
 41
1.24
 42
50.0
 43
0.0
 44
0.0
 50
0.0
 51
0.0
 71
     0
 72
   100
 73
     1
 74
     3
 75
     0
 76
     0
 77
     0
 78
     0
  0
ENDTAB
  0
TABLE
  2
LTYPE
  5
5
330
0
100
AcDbSymbolTable
 70
     1
  0
LTYPE
  5
14
330
5
100
AcDbSymbolTableRecord
100
AcDbLinetypeTableRecord
  2
BYBLOCK
 70
     0
  3

 72
    65
 73
     0
 40
0.0
  0
LTYPE
  5
15
330
5
100
AcDbSymbolTableRecord
100
AcDbLinetypeTableRecord
  2
BYLAYER
 70
     0
  3

 72
    65
 73
     0
 40
0.0
  0
LTYPE
  5
16
330
5
100
AcDbSymbolTableRecord
100
AcDbLinetypeTableRecord
  2
CONTINUOUS
 70
     0
  3
Solid line
 72
    65
 73
     0
 40
0.0
  0
ENDTAB
  0
TABLE
  2
LAYER
  5
2
100
AcDbSymbolTable
 70
1
  0
LAYER
  5
50
100
AcDbSymbolTableRecord
100
AcDbLayerTableRecord
  2
0
 70
0
  6
CONTINUOUS
  0
ENDTAB
  0
TABLE
  2
STYLE
  5
3
330
0
100
AcDbSymbolTable
 70
     1
  0
STYLE
  5
11
330
3
100
AcDbSymbolTableRecord
100
AcDbTextStyleTableRecord
  2
STANDARD
 70
     0
 40
0.0
 41
1.0
 50
0.0
 71
     0
 42
2.5
  3
txt
  4

  0
ENDTAB
  0
TABLE
  2
VIEW
  5
6
330
0
100
AcDbSymbolTable
 70
     0
  0
ENDTAB
  0
TABLE
  2
UCS
  5
7
330
0
100
AcDbSymbolTable
 70
     0
  0
ENDTAB
  0
TABLE
  2
APPID
  5
9
330
0
100
AcDbSymbolTable
 70
     2
  0
APPID
  5
12
330
9
100
AcDbSymbolTableRecord
100
AcDbRegAppTableRecord
  2
ACAD
 70
     0
  0
ENDTAB
  0
TABLE
  2
DIMSTYLE
  5
A
330
0
100
AcDbSymbolTable
 70
     1
  0
DIMSTYLE
105
27
330
A
100
AcDbSymbolTableRecord
100
AcDbDimStyleTableRecord
  2
ISO-25
 70
     0
  3

  4

  5

  6

  7

 40
1.0
 41
2.5
 42
0.625
 43
3.75
 44
1.25
 45
0.0
 46
0.0
 47
0.0
 48
0.0
140
2.5
141
2.5
142
0.0
143
0.03937007874016
144
1.0
145
0.0
146
1.0
147
0.625
 71
     0
 72
     0
 73
     0
 74
     0
 75
     0
 76
     0
 77
     1
 78
     8
170
     0
171
     3
172
     1
173
     0
174
     0
175
     0
176
     0
177
     0
178
     0
270
     2
271
     2
272
     2
273
     2
274
     3
340
11
275
     0
280
     0
281
     0
282
     0
283
     0
284
     8
285
     0
286
     0
287
     3
288
     0
  0
ENDTAB
  0
TABLE
  2
BLOCK_RECORD
  5
1
330
0
100
AcDbSymbolTable
 70
     1
  0
BLOCK_RECORD
  5
1F
330
1
100
AcDbSymbolTableRecord
100
AcDbBlockTableRecord
  2
*MODEL_SPACE
  0
BLOCK_RECORD
  5
1B
330
1
100
AcDbSymbolTableRecord
100
AcDbBlockTableRecord
  2
*PAPER_SPACE
  0
ENDTAB
  0
ENDSEC
  0
SECTION
  2
BLOCKS
  0
BLOCK
  5
20
330
1F
100
AcDbEntity
  8
0
100
AcDbBlockBegin
  2
*MODEL_SPACE
 70
     0
 10
0.0
 20
0.0
 30
0.0
  3
*MODEL_SPACE
  1

  0
ENDBLK
  5
21
330
1F
100
AcDbEntity
  8
0
100
AcDbBlockEnd
  0
BLOCK
  5
1C
330
1B
100
AcDbEntity
 67
     1
  8
0
100
AcDbBlockBegin
  2
*PAPER_SPACE
  1

  0
ENDBLK
  5
1D
330
1B
100
AcDbEntity
 67
     1
  8
0
100
AcDbBlockEnd
  0
ENDSEC
  0
SECTION
  2
ENTITIES
  0
SPLINE
  5
100
100
AcDbEntity
  8
0
 62
7
100
AcDbSpline
 70
8
 71
3
 72
8
 73
4
 74
0
 40
0
 40
0
 40
0
 40
0
 40
1
 40
1
 40
1
 40
1
 10
343.448534
 20
112.344513
 30
0.0
 10
343.452008
 20
120.786172
 30
0.0
 10
338.950431
 20
128.588073
 30
0.0
 10
331.640318
 20
132.809906
 30
0.0
  0
SPLINE
  5
101
100
AcDbEntity
  8
0
 62
7
100
AcDbSpline
 70
8
 71
3
 72
8
 73
4
 74
0
 40
0
 40
0
 40
0
 40
0
 40
1
 40
1
 40
1
 40
1
 10
331.640318
 20
132.809906
 30
0.0
 10
324.330206
 20
137.031739
 30
0.0
 10
315.322772
 20
137.031739
 30
0.0
 10
308.012660
 20
132.809906
 30
0.0
  0
SPLINE
  5
102
100
AcDbEntity
  8
0
 62
7
100
AcDbSpline
 70
8
 71
3
 72
8
 73
4
 74
0
 40
0
 40
0
 40
0
 40
0
 40
1
 40
1
 40
1
 40
1
 10
308.012660
 20
132.809906
 30
0.0
 10
300.702547
 20
128.588073
 30
0.0
 10
296.200970
 20
120.786172
 30
0.0
 10
296.204444
 20
112.344513
 30
0.0
  0
SPLINE
  5
103
100
AcDbEntity
  8
0
 62
7
100
AcDbSpline
 70
8
 71
3
 72
8
 73
4
 74
0
 40
0
 40
0
 40
0
 40
0
 40
1
 40
1
 40
1
 40
1
 10
296.204444
 20
112.344513
 30
0.0
 10
296.200189
 20
103.902334
 30
0.0
 10
300.701595
 20
96.099617
 30
0.0
 10
308.012028
 20
91.877299
 30
0.0
  0
SPLINE
  5
104
100
AcDbEntity
  8
0
 62
7
100
AcDbSpline
 70
8
 71
3
 72
8
 73
4
 74
0
 40
0
 40
0
 40
0
 40
0
 40
1
 40
1
 40
1
 40
1
 10
308.012028
 20
91.877299
 30
0.0
 10
315.322462
 20
87.654980
 30
0.0
 10
324.330516
 20
87.654980
 30
0.0
 10
331.640950
 20
91.877299
 30
0.0
  0
SPLINE
  5
105
100
AcDbEntity
  8
0
 62
7
100
AcDbSpline
 70
8
 71
3
 72
8
 73
4
 74
0
 40
0
 40
0
 40
0
 40
0
 40
1
 40
1
 40
1
 40
1
 10
331.640950
 20
91.877299
 30
0.0
 10
338.951383
 20
96.099617
 30
0.0
 10
343.452789
 20
103.902334
 30
0.0
 10
343.448534
 20
112.344513
 30
0.0
  0
LINE
  5
106
100
AcDbEntity
  8
0
 62
7
100
AcDbLine
 10
343.448534
 20
112.344513
 30
0.0
 11
343.448534
 21
112.344513
 31
0.0
  0
SPLINE
  5
107
100
AcDbEntity
  8
0
 62
7
100
AcDbSpline
 70
8
 71
3
 72
8
 73
4
 74
0
 40
0
 40
0
 40
0
 40
0
 40
1
 40
1
 40
1
 40
1
 10
199.826484
 20
112.344513
 30
0.0
 10
199.829958
 20
120.786172
 30
0.0
 10
195.328381
 20
128.588073
 30
0.0
 10
188.018268
 20
132.809906
 30
0.0
  0
SPLINE
  5
108
100
AcDbEntity
  8
0
 62
7
100
AcDbSpline
 70
8
 71
3
 72
8
 73
4
 74
0
 40
0
 40
0
 40
0
 40
0
 40
1
 40
1
 40
1
 40
1
 10
188.018268
 20
132.809906
 30
0.0
 10
180.708156
 20
137.031739
 30
0.0
 10
171.700722
 20
137.031739
 30
0.0
 10
164.390610
 20
132.809906
 30
0.0
  0
SPLINE
  5
109
100
AcDbEntity
  8
0
 62
7
100
AcDbSpline
 70
8
 71
3
 72
8
 73
4
 74
0
 40
0
 40
0
 40
0
 40
0
 40
1
 40
1
 40
1
 40
1
 10
164.390610
 20
132.809906
 30
0.0
 10
157.080497
 20
128.588073
 30
0.0
 10
152.578920
 20
120.786172
 30
0.0
 10
152.582394
 20
112.344513
 30
0.0
  0
SPLINE
  5
10a
100
AcDbEntity
  8
0
 62
7
100
AcDbSpline
 70
8
 71
3
 72
8
 73
4
 74
0
 40
0
 40
0
 40
0
 40
0
 40
1
 40
1
 40
1
 40
1
 10
152.582394
 20
112.344513
 30
0.0
 10
152.578920
 20
103.902854
 30
0.0
 10
157.080497
 20
96.100953
 30
0.0
 10
164.390610
 20
91.879120
 30
0.0
  0
SPLINE
  5
10b
100
AcDbEntity
  8
0
 62
7
100
AcDbSpline
 70
8
 71
3
 72
8
 73
4
 74
0
 40
0
 40
0
 40
0
 40
0
 40
1
 40
1
 40
1
 40
1
 10
164.390610
 20
91.879120
 30
0.0
 10
171.700722
 20
87.657287
 30
0.0
 10
180.708156
 20
87.657287
 30
0.0
 10
188.018268
 20
91.879120
 30
0.0
  0
SPLINE
  5
10c
100
AcDbEntity
  8
0
 62
7
100
AcDbSpline
 70
8
 71
3
 72
8
 73
4
 74
0
 40
0
 40
0
 40
0
 40
0
 40
1
 40
1
 40
1
 40
1
 10
188.018268
 20
91.879120
 30
0.0
 10
195.328381
 20
96.100953
 30
0.0
 10
199.829958
 20
103.902854
 30
0.0
 10
199.826484
 20
112.344513
 30
0.0
  0
LINE
  5
10d
100
AcDbEntity
  8
0
 62
7
100
AcDbLine
 10
199.826484
 20
112.344513
 30
0.0
 11
199.826484
 21
112.344513
 31
0.0
  0
SPLINE
  5
10e
100
AcDbEntity
  8
0
 62
7
100
AcDbSpline
 70
8
 71
3
 72
8
 73
4
 74
0
 40
0
 40
0
 40
0
 40
0
 40
1
 40
1
 40
1
 40
1
 10
501.243814
 20
336.120763
 30
0.0
 10
501.243814
 20
338.146207
 30
0.0
 10
500.163252
 20
340.017794
 30
0.0
 10
498.409167
 20
341.030516
 30
0.0
  0
SPLINE
  5
10f
100
AcDbEntity
  8
0
 62
7
100
AcDbSpline
 70
8
 71
3
 72
8
 73
4
 74
0
 40
0
 40
0
 40
0
 40
0
 40
1
 40
1
 40
1
 40
1
 10
498.409167
 20
341.030516
 30
0.0
 10
496.655081
 20
342.043239
 30
0.0
 10
494.493957
 20
342.043239
 30
0.0
 10
492.739871
 20
341.030516
 30
0.0
  0
SPLINE
  5
110
100
AcDbEntity
  8
0
 62
7
100
AcDbSpline
 70
8
 71
3
 72
8
 73
4
 74
0
 40
0
 40
0
 40
0
 40
0
 40
1
 40
1
 40
1
 40
1
 10
492.739871
 20
341.030516
 30
0.0
 10
490.985786
 20
340.017794
 30
0.0
 10
489.905224
 20
338.146207
 30
0.0
 10
489.905224
 20
336.120763
 30
0.0
  0
SPLINE
  5
111
100
AcDbEntity
  8
0
 62
7
100
AcDbSpline
 70
8
 71
3
 72
8
 73
4
 74
0
 40
0
 40
0
 40
0
 40
0
 40
1
 40
1
 40
1
 40
1
 10
489.905224
 20
336.120763
 30
0.0
 10
489.905224
 20
334.095319
 30
0.0
 10
490.985786
 20
332.223732
 30
0.0
 10
492.739871
 20
331.211010
 30
0.0
  0
SPLINE
  5
112
100
AcDbEntity
  8
0
 62
7
100
AcDbSpline
 70
8
 71
3
 72
8
 73
4
 74
0
 40
0
 40
0
 40
0
 40
0
 40
1
 40
1
 40
1
 40
1
 10
492.739871
 20
331.211010
 30
0.0
 10
494.493957
 20
330.198287
 30
0.0
 10
496.655081
 20
330.198287
 30
0.0
 10
498.409167
 20
331.211010
 30
0.0
  0
SPLINE
  5
113
100
AcDbEntity
  8
0
 62
7
100
AcDbSpline
 70
8
 71
3
 72
8
 73
4
 74
0
 40
0
 40
0
 40
0
 40
0
 40
1
 40
1
 40
1
 40
1
 10
498.409167
 20
331.211010
 30
0.0
 10
500.163252
 20
332.223732
 30
0.0
 10
501.243814
 20
334.095319
 30
0.0
 10
501.243814
 20
336.120763
 30
0.0
  0
LINE
  5
114
100
AcDbEntity
  8
0
 62
7
100
AcDbLine
 10
501.243814
 20
336.120763
 30
0.0
 11
501.243814
 21
336.120763
 31
0.0
  0
SPLINE
  5
115
100
AcDbEntity
  8
0
 62
7
100
AcDbSpline
 70
8
 71
3
 72
8
 73
4
 74
0
 40
0
 40
0
 40
0
 40
0
 40
1
 40
1
 40
1
 40
1
 10
506.913104
 20
224.232663
 30
0.0
 10
506.913104
 20
228.283549
 30
0.0
 10
504.751982
 20
232.026723
 30
0.0
 10
501.243812
 20
234.052166
 30
0.0
  0
SPLINE
  5
116
100
AcDbEntity
  8
0
 62
7
100
AcDbSpline
 70
8
 71
3
 72
8
 73
4
 74
0
 40
0
 40
0
 40
0
 40
0
 40
1
 40
1
 40
1
 40
1
 10
501.243812
 20
234.052166
 30
0.0
 10
497.735641
 20
236.077609
 30
0.0
 10
493.413397
 20
236.077609
 30
0.0
 10
489.905227
 20
234.052166
 30
0.0
  0
SPLINE
  5
117
100
AcDbEntity
  8
0
 62
7
100
AcDbSpline
 70
8
 71
3
 72
8
 73
4
 74
0
 40
0
 40
0
 40
0
 40
0
 40
1
 40
1
 40
1
 40
1
 10
489.905227
 20
234.052166
 30
0.0
 10
486.397056
 20
232.026723
 30
0.0
 10
484.235934
 20
228.283549
 30
0.0
 10
484.235934
 20
224.232663
 30
0.0
  0
SPLINE
  5
118
100
AcDbEntity
  8
0
 62
7
100
AcDbSpline
 70
8
 71
3
 72
8
 73
4
 74
0
 40
0
 40
0
 40
0
 40
0
 40
1
 40
1
 40
1
 40
1
 10
484.235934
 20
224.232663
 30
0.0
 10
484.235934
 20
220.181777
 30
0.0
 10
486.397056
 20
216.438603
 30
0.0
 10
489.905227
 20
214.413160
 30
0.0
  0
SPLINE
  5
119
100
AcDbEntity
  8
0
 62
7
100
AcDbSpline
 70
8
 71
3
 72
8
 73
4
 74
0
 40
0
 40
0
 40
0
 40
0
 40
1
 40
1
 40
1
 40
1
 10
489.905227
 20
214.413160
 30
0.0
 10
493.413397
 20
212.387717
 30
0.0
 10
497.735641
 20
212.387717
 30
0.0
 10
501.243812
 20
214.413160
 30
0.0
  0
SPLINE
  5
11a
100
AcDbEntity
  8
0
 62
7
100
AcDbSpline
 70
8
 71
3
 72
8
 73
4
 74
0
 40
0
 40
0
 40
0
 40
0
 40
1
 40
1
 40
1
 40
1
 10
501.243812
 20
214.413160
 30
0.0
 10
504.751982
 20
216.438603
 30
0.0
 10
506.913104
 20
220.181777
 30
0.0
 10
506.913104
 20
224.232663
 30
0.0
  0
LINE
  5
11b
100
AcDbEntity
  8
0
 62
7
100
AcDbLine
 10
506.913104
 20
224.232663
 30
0.0
 11
506.913104
 21
224.232663
 31
0.0
  0
SPLINE
  5
11c
100
AcDbEntity
  8
0
 62
7
100
AcDbSpline
 70
8
 71
3
 72
8
 73
4
 74
0
 40
0
 40
0
 40
0
 40
0
 40
1
 40
1
 40
1
 40
1
 10
581.086334
 20
392.064813
 30
0.0
 10
581.086334
 20
400.504159
 30
0.0
 10
576.583997
 20
408.302436
 30
0.0
 10
569.275309
 20
412.522108
 30
0.0
  0
SPLINE
  5
11d
100
AcDbEntity
  8
0
 62
7
100
AcDbSpline
 70
8
 71
3
 72
8
 73
4
 74
0
 40
0
 40
0
 40
0
 40
0
 40
1
 40
1
 40
1
 40
1
 10
569.275309
 20
412.522108
 30
0.0
 10
561.966621
 20
416.741781
 30
0.0
 10
552.961947
 20
416.741781
 30
0.0
 10
545.653259
 20
412.522108
 30
0.0
  0
SPLINE
  5
11e
100
AcDbEntity
  8
0
 62
7
100
AcDbSpline
 70
8
 71
3
 72
8
 73
4
 74
0
 40
0
 40
0
 40
0
 40
0
 40
1
 40
1
 40
1
 40
1
 10
545.653259
 20
412.522108
 30
0.0
 10
538.344571
 20
408.302436
 30
0.0
 10
533.842234
 20
400.504159
 30
0.0
 10
533.842234
 20
392.064813
 30
0.0
  0
SPLINE
  5
11f
100
AcDbEntity
  8
0
 62
7
100
AcDbSpline
 70
8
 71
3
 72
8
 73
4
 74
0
 40
0
 40
0
 40
0
 40
0
 40
1
 40
1
 40
1
 40
1
 10
533.842234
 20
392.064813
 30
0.0
 10
533.842234
 20
383.625467
 30
0.0
 10
538.344571
 20
375.827190
 30
0.0
 10
545.653259
 20
371.607518
 30
0.0
  0
SPLINE
  5
120
100
AcDbEntity
  8
0
 62
7
100
AcDbSpline
 70
8
 71
3
 72
8
 73
4
 74
0
 40
0
 40
0
 40
0
 40
0
 40
1
 40
1
 40
1
 40
1
 10
545.653259
 20
371.607518
 30
0.0
 10
552.961947
 20
367.387845
 30
0.0
 10
561.966621
 20
367.387845
 30
0.0
 10
569.275309
 20
371.607518
 30
0.0
  0
SPLINE
  5
121
100
AcDbEntity
  8
0
 62
7
100
AcDbSpline
 70
8
 71
3
 72
8
 73
4
 74
0
 40
0
 40
0
 40
0
 40
0
 40
1
 40
1
 40
1
 40
1
 10
569.275309
 20
371.607518
 30
0.0
 10
576.583997
 20
375.827190
 30
0.0
 10
581.086334
 20
383.625467
 30
0.0
 10
581.086334
 20
392.064813
 30
0.0
  0
LINE
  5
122
100
AcDbEntity
  8
0
 62
7
100
AcDbLine
 10
581.086334
 20
392.064813
 30
0.0
 11
581.086334
 21
392.064813
 31
0.0
  0
SPLINE
  5
123
100
AcDbEntity
  8
0
 62
7
100
AcDbSpline
 70
8
 71
3
 72
8
 73
4
 74
0
 40
0
 40
0
 40
0
 40
0
 40
1
 40
1
 40
1
 40
1
 10
952.424914
 20
112.344513
 30
0.0
 10
952.424914
 20
120.783859
 30
0.0
 10
947.922577
 20
128.582136
 30
0.0
 10
940.613889
 20
132.801808
 30
0.0
  0
SPLINE
  5
124
100
AcDbEntity
  8
0
 62
7
100
AcDbSpline
 70
8
 71
3
 72
8
 73
4
 74
0
 40
0
 40
0
 40
0
 40
0
 40
1
 40
1
 40
1
 40
1
 10
940.613889
 20
132.801808
 30
0.0
 10
933.305201
 20
137.021481
 30
0.0
 10
924.300527
 20
137.021481
 30
0.0
 10
916.991839
 20
132.801808
 30
0.0
  0
SPLINE
  5
125
100
AcDbEntity
  8
0
 62
7
100
AcDbSpline
 70
8
 71
3
 72
8
 73
4
 74
0
 40
0
 40
0
 40
0
 40
0
 40
1
 40
1
 40
1
 40
1
 10
916.991839
 20
132.801808
 30
0.0
 10
909.683151
 20
128.582136
 30
0.0
 10
905.180814
 20
120.783859
 30
0.0
 10
905.180814
 20
112.344513
 30
0.0
  0
SPLINE
  5
126
100
AcDbEntity
  8
0
 62
7
100
AcDbSpline
 70
8
 71
3
 72
8
 73
4
 74
0
 40
0
 40
0
 40
0
 40
0
 40
1
 40
1
 40
1
 40
1
 10
905.180814
 20
112.344513
 30
0.0
 10
905.180814
 20
103.905167
 30
0.0
 10
909.683151
 20
96.106890
 30
0.0
 10
916.991839
 20
91.887218
 30
0.0
  0
SPLINE
  5
127
100
AcDbEntity
  8
0
 62
7
100
AcDbSpline
 70
8
 71
3
 72
8
 73
4
 74
0
 40
0
 40
0
 40
0
 40
0
 40
1
 40
1
 40
1
 40
1
 10
916.991839
 20
91.887218
 30
0.0
 10
924.300527
 20
87.667545
 30
0.0
 10
933.305201
 20
87.667545
 30
0.0
 10
940.613889
 20
91.887218
 30
0.0
  0
SPLINE
  5
128
100
AcDbEntity
  8
0
 62
7
100
AcDbSpline
 70
8
 71
3
 72
8
 73
4
 74
0
 40
0
 40
0
 40
0
 40
0
 40
1
 40
1
 40
1
 40
1
 10
940.613889
 20
91.887218
 30
0.0
 10
947.922577
 20
96.106890
 30
0.0
 10
952.424914
 20
103.905167
 30
0.0
 10
952.424914
 20
112.344513
 30
0.0
  0
LINE
  5
129
100
AcDbEntity
  8
0
 62
7
100
AcDbLine
 10
952.424914
 20
112.344513
 30
0.0
 11
952.424914
 21
112.344513
 31
0.0
  0
SPLINE
  5
12a
100
AcDbEntity
  8
0
 62
7
100
AcDbSpline
 70
8
 71
3
 72
8
 73
4
 74
0
 40
0
 40
0
 40
0
 40
0
 40
1
 40
1
 40
1
 40
1
 10
704.865854
 20
280.176713
 30
0.0
 10
704.869328
 20
288.618372
 30
0.0
 10
700.367751
 20
296.420273
 30
0.0
 10
693.057638
 20
300.642106
 30
0.0
  0
SPLINE
  5
12b
100
AcDbEntity
  8
0
 62
7
100
AcDbSpline
 70
8
 71
3
 72
8
 73
4
 74
0
 40
0
 40
0
 40
0
 40
0
 40
1
 40
1
 40
1
 40
1
 10
693.057638
 20
300.642106
 30
0.0
 10
685.747526
 20
304.863939
 30
0.0
 10
676.740092
 20
304.863939
 30
0.0
 10
669.429980
 20
300.642106
 30
0.0
  0
SPLINE
  5
12c
100
AcDbEntity
  8
0
 62
7
100
AcDbSpline
 70
8
 71
3
 72
8
 73
4
 74
0
 40
0
 40
0
 40
0
 40
0
 40
1
 40
1
 40
1
 40
1
 10
669.429980
 20
300.642106
 30
0.0
 10
662.119867
 20
296.420273
 30
0.0
 10
657.618290
 20
288.618372
 30
0.0
 10
657.621764
 20
280.176713
 30
0.0
  0
SPLINE
  5
12d
100
AcDbEntity
  8
0
 62
7
100
AcDbSpline
 70
8
 71
3
 72
8
 73
4
 74
0
 40
0
 40
0
 40
0
 40
0
 40
1
 40
1
 40
1
 40
1
 10
657.621764
 20
280.176713
 30
0.0
 10
657.618290
 20
271.735054
 30
0.0
 10
662.119867
 20
263.933153
 30
0.0
 10
669.429980
 20
259.711320
 30
0.0
  0
SPLINE
  5
12e
100
AcDbEntity
  8
0
 62
7
100
AcDbSpline
 70
8
 71
3
 72
8
 73
4
 74
0
 40
0
 40
0
 40
0
 40
0
 40
1
 40
1
 40
1
 40
1
 10
669.429980
 20
259.711320
 30
0.0
 10
676.740092
 20
255.489487
 30
0.0
 10
685.747526
 20
255.489487
 30
0.0
 10
693.057638
 20
259.711320
 30
0.0
  0
SPLINE
  5
12f
100
AcDbEntity
  8
0
 62
7
100
AcDbSpline
 70
8
 71
3
 72
8
 73
4
 74
0
 40
0
 40
0
 40
0
 40
0
 40
1
 40
1
 40
1
 40
1
 10
693.057638
 20
259.711320
 30
0.0
 10
700.367751
 20
263.933153
 30
0.0
 10
704.869328
 20
271.735054
 30
0.0
 10
704.865854
 20
280.176713
 30
0.0
  0
LINE
  5
130
100
AcDbEntity
  8
0
 62
7
100
AcDbLine
 10
704.865854
 20
280.176713
 30
0.0
 11
704.865854
 21
280.176713
 31
0.0
  0
SPLINE
  5
131
100
AcDbEntity
  8
0
 62
7
100
AcDbSpline
 70
8
 71
3
 72
8
 73
4
 74
0
 40
0
 40
0
 40
0
 40
0
 40
1
 40
1
 40
1
 40
1
 10
952.424914
 20
392.064813
 30
0.0
 10
952.424914
 20
400.504159
 30
0.0
 10
947.922577
 20
408.302436
 30
0.0
 10
940.613889
 20
412.522108
 30
0.0
  0
SPLINE
  5
132
100
AcDbEntity
  8
0
 62
7
100
AcDbSpline
 70
8
 71
3
 72
8
 73
4
 74
0
 40
0
 40
0
 40
0
 40
0
 40
1
 40
1
 40
1
 40
1
 10
940.613889
 20
412.522108
 30
0.0
 10
933.305201
 20
416.741781
 30
0.0
 10
924.300527
 20
416.741781
 30
0.0
 10
916.991839
 20
412.522108
 30
0.0
  0
SPLINE
  5
133
100
AcDbEntity
  8
0
 62
7
100
AcDbSpline
 70
8
 71
3
 72
8
 73
4
 74
0
 40
0
 40
0
 40
0
 40
0
 40
1
 40
1
 40
1
 40
1
 10
916.991839
 20
412.522108
 30
0.0
 10
909.683151
 20
408.302436
 30
0.0
 10
905.180814
 20
400.504159
 30
0.0
 10
905.180814
 20
392.064813
 30
0.0
  0
SPLINE
  5
134
100
AcDbEntity
  8
0
 62
7
100
AcDbSpline
 70
8
 71
3
 72
8
 73
4
 74
0
 40
0
 40
0
 40
0
 40
0
 40
1
 40
1
 40
1
 40
1
 10
905.180814
 20
392.064813
 30
0.0
 10
905.180814
 20
383.625467
 30
0.0
 10
909.683151
 20
375.827190
 30
0.0
 10
916.991839
 20
371.607518
 30
0.0
  0
SPLINE
  5
135
100
AcDbEntity
  8
0
 62
7
100
AcDbSpline
 70
8
 71
3
 72
8
 73
4
 74
0
 40
0
 40
0
 40
0
 40
0
 40
1
 40
1
 40
1
 40
1
 10
916.991839
 20
371.607518
 30
0.0
 10
924.300527
 20
367.387845
 30
0.0
 10
933.305201
 20
367.387845
 30
0.0
 10
940.613889
 20
371.607518
 30
0.0
  0
SPLINE
  5
136
100
AcDbEntity
  8
0
 62
7
100
AcDbSpline
 70
8
 71
3
 72
8
 73
4
 74
0
 40
0
 40
0
 40
0
 40
0
 40
1
 40
1
 40
1
 40
1
 10
940.613889
 20
371.607518
 30
0.0
 10
947.922577
 20
375.827190
 30
0.0
 10
952.424914
 20
383.625467
 30
0.0
 10
952.424914
 20
392.064813
 30
0.0
  0
LINE
  5
137
100
AcDbEntity
  8
0
 62
7
100
AcDbLine
 10
952.424914
 20
392.064813
 30
0.0
 11
952.424914
 21
392.064813
 31
0.0
  0
SPLINE
  5
138
100
AcDbEntity
  8
0
 62
7
100
AcDbSpline
 70
8
 71
3
 72
8
 73
4
 74
0
 40
0
 40
0
 40
0
 40
0
 40
1
 40
1
 40
1
 40
1
 10
828.645384
 20
392.064813
 30
0.0
 10
828.648858
 20
400.506472
 30
0.0
 10
824.147281
 20
408.308373
 30
0.0
 10
816.837168
 20
412.530206
 30
0.0
  0
SPLINE
  5
139
100
AcDbEntity
  8
0
 62
7
100
AcDbSpline
 70
8
 71
3
 72
8
 73
4
 74
0
 40
0
 40
0
 40
0
 40
0
 40
1
 40
1
 40
1
 40
1
 10
816.837168
 20
412.530206
 30
0.0
 10
809.527056
 20
416.752039
 30
0.0
 10
800.519622
 20
416.752039
 30
0.0
 10
793.209510
 20
412.530206
 30
0.0
  0
SPLINE
  5
13a
100
AcDbEntity
  8
0
 62
7
100
AcDbSpline
 70
8
 71
3
 72
8
 73
4
 74
0
 40
0
 40
0
 40
0
 40
0
 40
1
 40
1
 40
1
 40
1
 10
793.209510
 20
412.530206
 30
0.0
 10
785.899397
 20
408.308373
 30
0.0
 10
781.397820
 20
400.506472
 30
0.0
 10
781.401294
 20
392.064813
 30
0.0
  0
SPLINE
  5
13b
100
AcDbEntity
  8
0
 62
7
100
AcDbSpline
 70
8
 71
3
 72
8
 73
4
 74
0
 40
0
 40
0
 40
0
 40
0
 40
1
 40
1
 40
1
 40
1
 10
781.401294
 20
392.064813
 30
0.0
 10
781.397820
 20
383.623154
 30
0.0
 10
785.899397
 20
375.821253
 30
0.0
 10
793.209510
 20
371.599420
 30
0.0
  0
SPLINE
  5
13c
100
AcDbEntity
  8
0
 62
7
100
AcDbSpline
 70
8
 71
3
 72
8
 73
4
 74
0
 40
0
 40
0
 40
0
 40
0
 40
1
 40
1
 40
1
 40
1
 10
793.209510
 20
371.599420
 30
0.0
 10
800.519622
 20
367.377587
 30
0.0
 10
809.527056
 20
367.377587
 30
0.0
 10
816.837168
 20
371.599420
 30
0.0
  0
SPLINE
  5
13d
100
AcDbEntity
  8
0
 62
7
100
AcDbSpline
 70
8
 71
3
 72
8
 73
4
 74
0
 40
0
 40
0
 40
0
 40
0
 40
1
 40
1
 40
1
 40
1
 10
816.837168
 20
371.599420
 30
0.0
 10
824.147281
 20
375.821253
 30
0.0
 10
828.648858
 20
383.623154
 30
0.0
 10
828.645384
 20
392.064813
 30
0.0
  0
LINE
  5
13e
100
AcDbEntity
  8
0
 62
7
100
AcDbLine
 10
828.645384
 20
392.064813
 30
0.0
 11
828.645384
 21
392.064813
 31
0.0
  0
SPLINE
  5
13f
100
AcDbEntity
  8
0
 62
7
100
AcDbSpline
 70
8
 71
3
 72
8
 73
4
 74
0
 40
0
 40
0
 40
0
 40
0
 40
1
 40
1
 40
1
 40
1
 10
704.865854
 20
392.064813
 30
0.0
 10
704.869328
 20
400.506472
 30
0.0
 10
700.367751
 20
408.308373
 30
0.0
 10
693.057638
 20
412.530206
 30
0.0
  0
SPLINE
  5
140
100
AcDbEntity
  8
0
 62
7
100
AcDbSpline
 70
8
 71
3
 72
8
 73
4
 74
0
 40
0
 40
0
 40
0
 40
0
 40
1
 40
1
 40
1
 40
1
 10
693.057638
 20
412.530206
 30
0.0
 10
685.747526
 20
416.752039
 30
0.0
 10
676.740092
 20
416.752039
 30
0.0
 10
669.429980
 20
412.530206
 30
0.0
  0
SPLINE
  5
141
100
AcDbEntity
  8
0
 62
7
100
AcDbSpline
 70
8
 71
3
 72
8
 73
4
 74
0
 40
0
 40
0
 40
0
 40
0
 40
1
 40
1
 40
1
 40
1
 10
669.429980
 20
412.530206
 30
0.0
 10
662.119867
 20
408.308373
 30
0.0
 10
657.618290
 20
400.506472
 30
0.0
 10
657.621764
 20
392.064813
 30
0.0
  0
SPLINE
  5
142
100
AcDbEntity
  8
0
 62
7
100
AcDbSpline
 70
8
 71
3
 72
8
 73
4
 74
0
 40
0
 40
0
 40
0
 40
0
 40
1
 40
1
 40
1
 40
1
 10
657.621764
 20
392.064813
 30
0.0
 10
657.618290
 20
383.623154
 30
0.0
 10
662.119867
 20
375.821253
 30
0.0
 10
669.429980
 20
371.599420
 30
0.0
  0
SPLINE
  5
143
100
AcDbEntity
  8
0
 62
7
100
AcDbSpline
 70
8
 71
3
 72
8
 73
4
 74
0
 40
0
 40
0
 40
0
 40
0
 40
1
 40
1
 40
1
 40
1
 10
669.429980
 20
371.599420
 30
0.0
 10
676.740092
 20
367.377587
 30
0.0
 10
685.747526
 20
367.377587
 30
0.0
 10
693.057638
 20
371.599420
 30
0.0
  0
SPLINE
  5
144
100
AcDbEntity
  8
0
 62
7
100
AcDbSpline
 70
8
 71
3
 72
8
 73
4
 74
0
 40
0
 40
0
 40
0
 40
0
 40
1
 40
1
 40
1
 40
1
 10
693.057638
 20
371.599420
 30
0.0
 10
700.367751
 20
375.821253
 30
0.0
 10
704.869328
 20
383.623154
 30
0.0
 10
704.865854
 20
392.064813
 30
0.0
  0
LINE
  5
145
100
AcDbEntity
  8
0
 62
7
100
AcDbLine
 10
704.865854
 20
392.064813
 30
0.0
 11
704.865854
 21
392.064813
 31
0.0
  0
SPLINE
  5
146
100
AcDbEntity
  8
0
 62
7
100
AcDbSpline
 70
8
 71
3
 72
8
 73
4
 74
0
 40
0
 40
0
 40
0
 40
0
 40
1
 40
1
 40
1
 40
1
 10
828.645384
 20
112.344513
 30
0.0
 10
828.648858
 20
120.786172
 30
0.0
 10
824.147281
 20
128.588073
 30
0.0
 10
816.837168
 20
132.809906
 30
0.0
  0
SPLINE
  5
147
100
AcDbEntity
  8
0
 62
7
100
AcDbSpline
 70
8
 71
3
 72
8
 73
4
 74
0
 40
0
 40
0
 40
0
 40
0
 40
1
 40
1
 40
1
 40
1
 10
816.837168
 20
132.809906
 30
0.0
 10
809.527056
 20
137.031739
 30
0.0
 10
800.519622
 20
137.031739
 30
0.0
 10
793.209510
 20
132.809906
 30
0.0
  0
SPLINE
  5
148
100
AcDbEntity
  8
0
 62
7
100
AcDbSpline
 70
8
 71
3
 72
8
 73
4
 74
0
 40
0
 40
0
 40
0
 40
0
 40
1
 40
1
 40
1
 40
1
 10
793.209510
 20
132.809906
 30
0.0
 10
785.899397
 20
128.588073
 30
0.0
 10
781.397820
 20
120.786172
 30
0.0
 10
781.401294
 20
112.344513
 30
0.0
  0
SPLINE
  5
149
100
AcDbEntity
  8
0
 62
7
100
AcDbSpline
 70
8
 71
3
 72
8
 73
4
 74
0
 40
0
 40
0
 40
0
 40
0
 40
1
 40
1
 40
1
 40
1
 10
781.401294
 20
112.344513
 30
0.0
 10
781.397820
 20
103.902854
 30
0.0
 10
785.899397
 20
96.100953
 30
0.0
 10
793.209510
 20
91.879120
 30
0.0
  0
SPLINE
  5
14a
100
AcDbEntity
  8
0
 62
7
100
AcDbSpline
 70
8
 71
3
 72
8
 73
4
 74
0
 40
0
 40
0
 40
0
 40
0
 40
1
 40
1
 40
1
 40
1
 10
793.209510
 20
91.879120
 30
0.0
 10
800.519622
 20
87.657287
 30
0.0
 10
809.527056
 20
87.657287
 30
0.0
 10
816.837168
 20
91.879120
 30
0.0
  0
SPLINE
  5
14b
100
AcDbEntity
  8
0
 62
7
100
AcDbSpline
 70
8
 71
3
 72
8
 73
4
 74
0
 40
0
 40
0
 40
0
 40
0
 40
1
 40
1
 40
1
 40
1
 10
816.837168
 20
91.879120
 30
0.0
 10
824.147281
 20
96.100953
 30
0.0
 10
828.648858
 20
103.902854
 30
0.0
 10
828.645384
 20
112.344513
 30
0.0
  0
LINE
  5
14c
100
AcDbEntity
  8
0
 62
7
100
AcDbLine
 10
828.645384
 20
112.344513
 30
0.0
 11
828.645384
 21
112.344513
 31
0.0
  0
SPLINE
  5
14d
100
AcDbEntity
  8
0
 62
7
100
AcDbSpline
 70
8
 71
3
 72
8
 73
4
 74
0
 40
0
 40
0
 40
0
 40
0
 40
1
 40
1
 40
1
 40
1
 10
704.865854
 20
112.344513
 30
0.0
 10
704.869328
 20
120.786172
 30
0.0
 10
700.367751
 20
128.588073
 30
0.0
 10
693.057638
 20
132.809906
 30
0.0
  0
SPLINE
  5
14e
100
AcDbEntity
  8
0
 62
7
100
AcDbSpline
 70
8
 71
3
 72
8
 73
4
 74
0
 40
0
 40
0
 40
0
 40
0
 40
1
 40
1
 40
1
 40
1
 10
693.057638
 20
132.809906
 30
0.0
 10
685.747526
 20
137.031739
 30
0.0
 10
676.740092
 20
137.031739
 30
0.0
 10
669.429980
 20
132.809906
 30
0.0
  0
SPLINE
  5
14f
100
AcDbEntity
  8
0
 62
7
100
AcDbSpline
 70
8
 71
3
 72
8
 73
4
 74
0
 40
0
 40
0
 40
0
 40
0
 40
1
 40
1
 40
1
 40
1
 10
669.429980
 20
132.809906
 30
0.0
 10
662.119867
 20
128.588073
 30
0.0
 10
657.618290
 20
120.786172
 30
0.0
 10
657.621764
 20
112.344513
 30
0.0
  0
SPLINE
  5
150
100
AcDbEntity
  8
0
 62
7
100
AcDbSpline
 70
8
 71
3
 72
8
 73
4
 74
0
 40
0
 40
0
 40
0
 40
0
 40
1
 40
1
 40
1
 40
1
 10
657.621764
 20
112.344513
 30
0.0
 10
657.618290
 20
103.902854
 30
0.0
 10
662.119867
 20
96.100953
 30
0.0
 10
669.429980
 20
91.879120
 30
0.0
  0
SPLINE
  5
151
100
AcDbEntity
  8
0
 62
7
100
AcDbSpline
 70
8
 71
3
 72
8
 73
4
 74
0
 40
0
 40
0
 40
0
 40
0
 40
1
 40
1
 40
1
 40
1
 10
669.429980
 20
91.879120
 30
0.0
 10
676.740092
 20
87.657287
 30
0.0
 10
685.747526
 20
87.657287
 30
0.0
 10
693.057638
 20
91.879120
 30
0.0
  0
SPLINE
  5
152
100
AcDbEntity
  8
0
 62
7
100
AcDbSpline
 70
8
 71
3
 72
8
 73
4
 74
0
 40
0
 40
0
 40
0
 40
0
 40
1
 40
1
 40
1
 40
1
 10
693.057638
 20
91.879120
 30
0.0
 10
700.367751
 20
96.100953
 30
0.0
 10
704.869328
 20
103.902854
 30
0.0
 10
704.865854
 20
112.344513
 30
0.0
  0
LINE
  5
153
100
AcDbEntity
  8
0
 62
7
100
AcDbLine
 10
704.865854
 20
112.344513
 30
0.0
 11
704.865854
 21
112.344513
 31
0.0
  0
SPLINE
  5
154
100
AcDbEntity
  8
0
 62
7
100
AcDbSpline
 70
8
 71
3
 72
8
 73
4
 74
0
 40
0
 40
0
 40
0
 40
0
 40
1
 40
1
 40
1
 40
1
 10
581.086334
 20
112.344513
 30
0.0
 10
581.086334
 20
120.783859
 30
0.0
 10
576.583997
 20
128.582136
 30
0.0
 10
569.275309
 20
132.801808
 30
0.0
  0
SPLINE
  5
155
100
AcDbEntity
  8
0
 62
7
100
AcDbSpline
 70
8
 71
3
 72
8
 73
4
 74
0
 40
0
 40
0
 40
0
 40
0
 40
1
 40
1
 40
1
 40
1
 10
569.275309
 20
132.801808
 30
0.0
 10
561.966621
 20
137.021481
 30
0.0
 10
552.961947
 20
137.021481
 30
0.0
 10
545.653259
 20
132.801808
 30
0.0
  0
SPLINE
  5
156
100
AcDbEntity
  8
0
 62
7
100
AcDbSpline
 70
8
 71
3
 72
8
 73
4
 74
0
 40
0
 40
0
 40
0
 40
0
 40
1
 40
1
 40
1
 40
1
 10
545.653259
 20
132.801808
 30
0.0
 10
538.344571
 20
128.582136
 30
0.0
 10
533.842234
 20
120.783859
 30
0.0
 10
533.842234
 20
112.344513
 30
0.0
  0
SPLINE
  5
157
100
AcDbEntity
  8
0
 62
7
100
AcDbSpline
 70
8
 71
3
 72
8
 73
4
 74
0
 40
0
 40
0
 40
0
 40
0
 40
1
 40
1
 40
1
 40
1
 10
533.842234
 20
112.344513
 30
0.0
 10
533.842234
 20
103.905167
 30
0.0
 10
538.344571
 20
96.106890
 30
0.0
 10
545.653259
 20
91.887218
 30
0.0
  0
SPLINE
  5
158
100
AcDbEntity
  8
0
 62
7
100
AcDbSpline
 70
8
 71
3
 72
8
 73
4
 74
0
 40
0
 40
0
 40
0
 40
0
 40
1
 40
1
 40
1
 40
1
 10
545.653259
 20
91.887218
 30
0.0
 10
552.961947
 20
87.667545
 30
0.0
 10
561.966621
 20
87.667545
 30
0.0
 10
569.275309
 20
91.887218
 30
0.0
  0
SPLINE
  5
159
100
AcDbEntity
  8
0
 62
7
100
AcDbSpline
 70
8
 71
3
 72
8
 73
4
 74
0
 40
0
 40
0
 40
0
 40
0
 40
1
 40
1
 40
1
 40
1
 10
569.275309
 20
91.887218
 30
0.0
 10
576.583997
 20
96.106890
 30
0.0
 10
581.086334
 20
103.905167
 30
0.0
 10
581.086334
 20
112.344513
 30
0.0
  0
LINE
  5
15a
100
AcDbEntity
  8
0
 62
7
100
AcDbLine
 10
581.086334
 20
112.344513
 30
0.0
 11
581.086334
 21
112.344513
 31
0.0
  0
SPLINE
  5
15b
100
AcDbEntity
  8
0
 62
7
100
AcDbSpline
 70
8
 71
3
 72
8
 73
4
 74
0
 40
0
 40
0
 40
0
 40
0
 40
1
 40
1
 40
1
 40
1
 10
828.645384
 20
280.176713
 30
0.0
 10
828.648858
 20
288.618372
 30
0.0
 10
824.147281
 20
296.420273
 30
0.0
 10
816.837168
 20
300.642106
 30
0.0
  0
SPLINE
  5
15c
100
AcDbEntity
  8
0
 62
7
100
AcDbSpline
 70
8
 71
3
 72
8
 73
4
 74
0
 40
0
 40
0
 40
0
 40
0
 40
1
 40
1
 40
1
 40
1
 10
816.837168
 20
300.642106
 30
0.0
 10
809.527056
 20
304.863939
 30
0.0
 10
800.519622
 20
304.863939
 30
0.0
 10
793.209510
 20
300.642106
 30
0.0
  0
SPLINE
  5
15d
100
AcDbEntity
  8
0
 62
7
100
AcDbSpline
 70
8
 71
3
 72
8
 73
4
 74
0
 40
0
 40
0
 40
0
 40
0
 40
1
 40
1
 40
1
 40
1
 10
793.209510
 20
300.642106
 30
0.0
 10
785.899397
 20
296.420273
 30
0.0
 10
781.397820
 20
288.618372
 30
0.0
 10
781.401294
 20
280.176713
 30
0.0
  0
SPLINE
  5
15e
100
AcDbEntity
  8
0
 62
7
100
AcDbSpline
 70
8
 71
3
 72
8
 73
4
 74
0
 40
0
 40
0
 40
0
 40
0
 40
1
 40
1
 40
1
 40
1
 10
781.401294
 20
280.176713
 30
0.0
 10
781.397820
 20
271.735054
 30
0.0
 10
785.899397
 20
263.933153
 30
0.0
 10
793.209510
 20
259.711320
 30
0.0
  0
SPLINE
  5
15f
100
AcDbEntity
  8
0
 62
7
100
AcDbSpline
 70
8
 71
3
 72
8
 73
4
 74
0
 40
0
 40
0
 40
0
 40
0
 40
1
 40
1
 40
1
 40
1
 10
793.209510
 20
259.711320
 30
0.0
 10
800.519622
 20
255.489487
 30
0.0
 10
809.527056
 20
255.489487
 30
0.0
 10
816.837168
 20
259.711320
 30
0.0
  0
SPLINE
  5
160
100
AcDbEntity
  8
0
 62
7
100
AcDbSpline
 70
8
 71
3
 72
8
 73
4
 74
0
 40
0
 40
0
 40
0
 40
0
 40
1
 40
1
 40
1
 40
1
 10
816.837168
 20
259.711320
 30
0.0
 10
824.147281
 20
263.933153
 30
0.0
 10
828.648858
 20
271.735054
 30
0.0
 10
828.645384
 20
280.176713
 30
0.0
  0
LINE
  5
161
100
AcDbEntity
  8
0
 62
7
100
AcDbLine
 10
828.645384
 20
280.176713
 30
0.0
 11
828.645384
 21
280.176713
 31
0.0
  0
LINE
  5
162
100
AcDbEntity
  8
0
 62
7
100
AcDbLine
 10
990.692624
 20
448.008863
 30
0.0
 11
0.456409
 21
448.008863
 31
0.0
  0
LINE
  5
163
100
AcDbEntity
  8
0
 62
7
100
AcDbLine
 10
990.692624
 20
0.456413
 30
0.0
 11
990.692624
 21
448.008863
 31
0.0
  0
LINE
  5
164
100
AcDbEntity
  8
0
 62
7
100
AcDbLine
 10
391.637514
 20
260.530213
 30
0.0
 11
391.637514
 21
411.711313
 31
0.0
  0
LINE
  5
165
100
AcDbEntity
  8
0
 62
7
100
AcDbLine
 10
391.637514
 20
411.711313
 30
0.0
 11
104.393417
 21
411.711313
 31
0.0
  0
LINE
  5
166
100
AcDbEntity
  8
0
 62
7
100
AcDbLine
 10
104.393417
 20
411.711313
 30
0.0
 11
104.393417
 21
260.530213
 31
0.0
  0
LINE
  5
167
100
AcDbEntity
  8
0
 62
7
100
AcDbLine
 10
104.393417
 20
260.530213
 30
0.0
 11
391.637514
 21
260.530213
 31
0.0
  0
LINE
  5
168
100
AcDbEntity
  8
0
 62
7
100
AcDbLine
 10
0.456409
 20
0.456413
 30
0.0
 11
990.692624
 21
0.456413
 31
0.0
  0
LINE
  5
169
100
AcDbEntity
  8
0
 62
7
100
AcDbLine
 10
0.456409
 20
448.008863
 30
0.0
 11
0.456409
 21
0.456413
 31
0.0
  0
ENDSEC
  0
SECTION
  2
OBJECTS
  0
DICTIONARY
  5
C
330
0
100
AcDbDictionary
  3
ACAD_GROUP
350
D
  3
ACAD_MLINESTYLE
350
17
  0
DICTIONARY
  5
D
330
C
100
AcDbDictionary
  0
DICTIONARY
  5
1A
330
C
100
AcDbDictionary
  0
DICTIONARY
  5
17
330
C
100
AcDbDictionary
  3
STANDARD
350
18
  0
DICTIONARY
  5
19
330
C
100
AcDbDictionary
  0
ENDSEC
  0
EOF
